<?xml version="1.0" encoding="UTF-8"?>
<svg xmlns="http://www.w3.org/2000/svg" xmlns:xlink="http://www.w3.org/1999/xlink" width="85px" height="60px" viewBox="0 0 85 60" version="1.1">
<defs>
<clipPath id="clip1">
  <path d="M 0 0 L 84.992188 0 L 84.992188 60 L 0 60 Z M 0 0 "/>
</clipPath>
</defs>
<g id="surface1">
<g clip-path="url(#clip1)" clip-rule="nonzero">
<rect x="0" y="0" width="85" height="60" style="fill:rgb(100%,0%,0%);fill-opacity:1;stroke:none;"/>
</g>
<path style=" stroke:none;fill-rule:evenodd;fill:rgb(100%,100%,0%);fill-opacity:1;" d="M 23.707031 30.597656 C 25.402344 28.652344 28.925781 30.550781 31.800781 29.15625 C 28.390625 29.332031 26.535156 27.609375 23.84375 27.855469 C 26.632812 26.238281 29.011719 28.382812 32.125 27.527344 C 28.003906 27.199219 28.179688 25.453125 24.417969 25.207031 C 27.753906 23.871094 29.398438 26.589844 32.671875 25.96875 C 28.8125 25.136719 28.316406 23.003906 25.449219 22.546875 C 29.632812 21.960938 29.359375 24.28125 33.457031 24.5625 C 29.296875 22.886719 30.382812 21.421875 26.90625 20.144531 C 30.804688 20.0625 30.542969 22.605469 34.503906 23.261719 C 31.117188 21.246094 31.527344 19.40625 28.75 17.964844 C 32.050781 18.023438 32.363281 21.199219 35.734375 22.183594 C 32.734375 19.945312 33.519531 18.046875 30.929688 16.042969 C 34.214844 16.769531 33.730469 19.511719 37.15625 21.269531 C 34.613281 18.621094 35.585938 16.722656 33.382812 14.554688 C 36.546875 15.503906 35.335938 18.117188 38.613281 20.601562 C 36.746094 17.683594 37.902344 15.820312 36.046875 13.371094 C 38.984375 14.789062 37.566406 17.460938 40.28125 20.109375 C 38.996094 17.121094 40.28125 15.269531 38.972656 12.621094 C 41.488281 14.378906 39.992188 17.226562 42.023438 19.945312 C 41.277344 16.195312 42.996094 15.585938 42.460938 12.304688 C 44.363281 14.507812 42.234375 16.710938 43.703125 19.957031 C 43.519531 16.265625 45.609375 15.410156 45.25 12.457031 C 47.128906 15.105469 44.191406 17.414062 45.421875 20.25 C 45.734375 16.757812 48.175781 15.84375 48.210938 13.125 C 49.707031 15.621094 46.46875 17.425781 46.992188 20.742188 C 48.050781 17.085938 50.652344 16.640625 50.976562 14.179688 C 51.859375 17.0625 48.3125 18.398438 48.523438 21.609375 C 49.582031 18.363281 52.832031 17.976562 53.503906 15.585938 C 53.914062 18.632812 50.714844 19.183594 49.804688 22.558594 C 51.488281 19.804688 54.4375 19.582031 55.757812 17.402344 C 55.65625 20.425781 52.046875 20.824219 50.9375 23.648438 C 53.019531 21.246094 55.632812 21.65625 57.710938 19.535156 C 57.488281 22.265625 53.816406 22.113281 51.859375 24.9375 C 54.113281 22.980469 57.511719 23.566406 59.242188 21.878906 C 59.15625 24.292969 54.648438 24.105469 52.519531 26.273438 C 55.132812 24.914062 58.472656 25.710938 60.390625 24.457031 C 60.039062 26.566406 55.285156 26.074219 53.003906 27.738281 C 56.144531 26.917969 58.570312 28.171875 61.097656 27.269531 C 59.867188 29.320312 55.546875 28.019531 53.253906 29.355469 C 55.992188 28.921875 58.882812 30.480469 61.359375 29.976562 C 60.550781 31.757812 55.808594 29.859375 53.265625 30.972656 C 56.304688 30.949219 58.285156 32.789062 61.109375 32.660156 C 59.578125 34.277344 55.421875 32.0625 52.992188 32.4375 C 55.957031 33.023438 58.222656 35.320312 60.464844 35.4375 C 58.609375 36.761719 55.171875 33.738281 52.371094 34.113281 C 55.257812 34.839844 57.675781 37.921875 59.316406 37.992188 C 57.539062 39.140625 54.027344 35.355469 51.625 35.496094 C 54.550781 36.738281 55.882812 39.890625 57.8125 40.335938 C 55.433594 41.050781 53.09375 36.914062 50.539062 36.761719 C 53.503906 38.519531 53.664062 41.214844 55.945312 42.410156 C 53.539062 42.960938 51.835938 38.285156 49.308594 37.886719 C 51.734375 39.5625 52.109375 43.160156 53.714844 44.285156 C 51.273438 44.402344 50.390625 39.515625 47.886719 38.8125 C 50.03125 40.5 49.519531 44.15625 51.1875 45.726562 C 48.648438 45.222656 48.972656 40.96875 46.320312 39.527344 C 48.222656 41.800781 47.253906 45.023438 48.5 46.839844 C 46.019531 45.902344 47.089844 42.082031 44.738281 39.925781 C 46.019531 42.339844 44.636719 45.152344 45.660156 47.484375 C 43.394531 46.441406 44.914062 41.929688 43.179688 40.136719 C 43.976562 42.925781 42.507812 45.234375 43.105469 47.730469 C 40.789062 45.210938 43.457031 42.667969 41.449219 40.101562 C 41.972656 43.042969 39.78125 45.105469 40.132812 47.566406 C 38.300781 45.550781 41.128906 42.328125 39.695312 39.785156 C 39.992188 42.679688 37.167969 45.222656 37.367188 47.050781 C 35.871094 44.707031 39.023438 41.941406 38.175781 39.28125 C 38 42.046875 35.136719 43.546875 34.601562 46.066406 C 33.644531 43.289062 37.042969 41.285156 36.746094 38.554688 C 35.773438 41.144531 33.007812 42.1875 32.039062 44.707031 C 31.242188 41.929688 35.273438 40.464844 35.375 37.558594 C 34.128906 40.277344 30.828125 40.886719 29.734375 42.972656 C 29.324219 40.21875 33.941406 38.988281 34.117188 36.375 C 32.621094 38.882812 29.011719 38.988281 27.765625 40.980469 C 27.582031 38.238281 32.449219 37.898438 33.207031 35.027344 C 31.726562 37.160156 27.765625 36.890625 26.109375 38.625 C 26.371094 36.082031 31.640625 35.929688 32.484375 33.632812 C 30.519531 35.414062 26.882812 34.6875 24.828125 36.09375 C 25.972656 33.585938 30.917969 34.113281 32.023438 32.308594 C 29.847656 33.375 25.972656 32.332031 24.054688 33.410156 C 25.800781 31.042969 29.632812 32.460938 31.8125 30.832031 C 28.277344 31.3125 26.148438 29.988281 23.695312 30.597656 Z M 23.707031 30.597656 "/>
<path style=" stroke:none;fill-rule:evenodd;fill:rgb(100%,100%,0%);fill-opacity:1;" d="M 54.898438 30.011719 C 54.898438 36.433594 49.367188 41.640625 42.539062 41.640625 C 35.714844 41.640625 30.183594 36.433594 30.183594 30.011719 C 30.183594 23.589844 35.710938 18.386719 42.535156 18.386719 C 49.355469 18.386719 54.886719 23.589844 54.886719 30.011719 Z M 54.898438 30.011719 "/>
<path style=" stroke:none;fill-rule:evenodd;fill:rgb(100%,0%,0%);fill-opacity:1;" d="M 53.304688 30.035156 C 53.304688 35.621094 48.492188 40.148438 42.558594 40.148438 C 36.625 40.148438 31.8125 35.621094 31.8125 30.035156 C 31.8125 24.449219 36.625 19.921875 42.558594 19.921875 C 48.492188 19.921875 53.304688 24.449219 53.304688 30.035156 Z M 53.304688 30.035156 "/>
<path style=" stroke:none;fill-rule:evenodd;fill:rgb(100%,100%,0%);fill-opacity:1;" d="M 51.808594 30.058594 C 51.808594 34.855469 47.679688 38.742188 42.582031 38.742188 C 37.488281 38.742188 33.359375 34.855469 33.359375 30.058594 C 33.359375 25.261719 37.488281 21.375 42.582031 21.375 C 47.679688 21.375 51.808594 25.261719 51.808594 30.058594 Z M 51.808594 30.058594 "/>
<path style=" stroke:none;fill-rule:evenodd;fill:rgb(100%,0%,0%);fill-opacity:1;" d="M 34.726562 24.375 C 37.28125 24.316406 40.453125 24.539062 42.558594 26.109375 C 44.808594 24.789062 47.453125 24.199219 50.09375 24.433594 L 51.460938 26.789062 C 49.332031 26.605469 47.191406 26.9375 45.234375 27.75 C 48.074219 29.71875 49.6875 32.882812 49.542969 36.199219 C 49.207031 36.597656 48.671875 37.03125 48.335938 37.429688 C 48.835938 34.089844 46.964844 30.363281 44.238281 28.40625 C 46.457031 31.40625 47.761719 34.101562 47.402344 37.828125 L 46.15625 38.578125 C 46.730469 35.296875 45.910156 31.429688 43.332031 29.203125 C 44.824219 31.253906 46.292969 34.945312 45.371094 38.695312 C 44.972656 38.8125 44.351562 39.128906 43.953125 39.234375 C 44.941406 36.121094 44.449219 32.757812 42.609375 30.011719 C 40.890625 32.332031 40.332031 35.871094 41.300781 39.152344 C 40.828125 39.035156 40.46875 38.894531 39.980469 38.789062 C 39.273438 35.273438 40.253906 31.289062 41.960938 29.214844 C 40.21875 30.164062 38.585938 34.21875 39.046875 38.355469 L 37.890625 37.851562 C 37.328125 34.769531 38.8125 30.75 40.941406 28.429688 C 38.523438 29.859375 36.558594 33.386719 36.894531 37.171875 C 36.519531 36.867188 36.183594 36.714844 35.808594 36.398438 C 35.386719 33.09375 37.429688 29.765625 39.808594 27.773438 C 37.800781 26.917969 36.070312 26.753906 33.582031 26.789062 C 33.96875 26.027344 34.328125 25.136719 34.726562 24.363281 Z M 34.726562 24.375 "/>
</g>
</svg>
