<?xml version="1.0" encoding="UTF-8"?>
<svg xmlns="http://www.w3.org/2000/svg" xmlns:xlink="http://www.w3.org/1999/xlink" width="85px" height="60px" viewBox="0 0 85 60" version="1.1">
<g id="surface1">
<rect x="0" y="0" width="85" height="60" style="fill:rgb(0%,67.058824%,76.078431%);fill-opacity:1;stroke:none;"/>
<path style=" stroke:none;fill-rule:nonzero;fill:rgb(100%,92.54902%,17.647059%);fill-opacity:1;" d="M 54.507812 25.199219 C 54.507812 29.660156 50.664062 33.277344 45.925781 33.277344 C 41.1875 33.277344 37.347656 29.660156 37.347656 25.199219 C 37.347656 20.738281 41.1875 17.125 45.925781 17.125 C 50.664062 17.125 54.507812 20.738281 54.507812 25.199219 Z M 54.507812 25.199219 "/>
<path style=" stroke:none;fill-rule:nonzero;fill:rgb(100%,92.54902%,17.647059%);fill-opacity:1;" d="M 45.925781 16.027344 C 46.4375 16.019531 46.628906 15.71875 46.628906 15.359375 C 46.628906 14.878906 45.925781 12.59375 45.925781 12.59375 C 45.925781 12.59375 45.226562 14.878906 45.226562 15.359375 C 45.226562 15.71875 45.417969 16.027344 45.925781 16.027344 Z M 45.925781 16.027344 "/>
<path style=" stroke:none;fill-rule:nonzero;fill:rgb(100%,92.54902%,17.647059%);fill-opacity:1;" d="M 55.675781 25.199219 C 55.679688 25.679688 56 25.859375 56.382812 25.859375 C 56.890625 25.859375 59.320312 25.199219 59.320312 25.199219 C 59.320312 25.199219 56.890625 24.539062 56.382812 24.539062 C 56 24.539062 55.675781 24.71875 55.675781 25.199219 Z M 55.675781 25.199219 "/>
<path style=" stroke:none;fill-rule:nonzero;fill:rgb(100%,92.54902%,17.647059%);fill-opacity:1;" d="M 45.925781 34.375 C 45.417969 34.378906 45.226562 34.679688 45.226562 35.039062 C 45.226562 35.519531 45.925781 37.804688 45.925781 37.804688 C 45.925781 37.804688 46.628906 35.519531 46.628906 35.039062 C 46.628906 34.679688 46.4375 34.375 45.925781 34.375 Z M 45.925781 34.375 "/>
<path style=" stroke:none;fill-rule:nonzero;fill:rgb(100%,92.54902%,17.647059%);fill-opacity:1;" d="M 36.179688 25.199219 C 36.171875 24.71875 35.855469 24.539062 35.472656 24.539062 C 34.960938 24.539062 32.53125 25.199219 32.53125 25.199219 C 32.53125 25.199219 34.960938 25.859375 35.472656 25.859375 C 35.855469 25.859375 36.179688 25.679688 36.179688 25.199219 Z M 36.179688 25.199219 "/>
<path style=" stroke:none;fill-rule:nonzero;fill:rgb(100%,92.54902%,17.647059%);fill-opacity:1;" d="M 49.65625 16.722656 C 50.128906 16.902344 50.429688 16.695312 50.574219 16.363281 C 50.769531 15.917969 51.050781 13.554688 51.050781 13.554688 C 51.050781 13.554688 49.476562 15.414062 49.28125 15.855469 C 49.132812 16.1875 49.183594 16.539062 49.65625 16.722656 Z M 49.65625 16.722656 "/>
<path style=" stroke:none;fill-rule:nonzero;fill:rgb(100%,92.54902%,17.647059%);fill-opacity:1;" d="M 54.933594 28.710938 C 54.742188 29.15625 54.964844 29.4375 55.316406 29.574219 C 55.789062 29.757812 58.300781 30.023438 58.300781 30.023438 C 58.300781 30.023438 56.324219 28.539062 55.855469 28.355469 C 55.5 28.21875 55.128906 28.265625 54.933594 28.710938 Z M 54.933594 28.710938 "/>
<path style=" stroke:none;fill-rule:nonzero;fill:rgb(100%,92.54902%,17.647059%);fill-opacity:1;" d="M 42.195312 33.675781 C 41.722656 33.496094 41.425781 33.707031 41.277344 34.039062 C 41.082031 34.480469 40.800781 36.847656 40.800781 36.847656 C 40.800781 36.847656 42.378906 34.988281 42.574219 34.542969 C 42.71875 34.210938 42.667969 33.859375 42.195312 33.675781 Z M 42.195312 33.675781 "/>
<path style=" stroke:none;fill-rule:nonzero;fill:rgb(100%,92.54902%,17.647059%);fill-opacity:1;" d="M 36.921875 21.6875 C 37.109375 21.242188 36.890625 20.960938 36.535156 20.824219 C 36.066406 20.640625 33.550781 20.375 33.550781 20.375 C 33.550781 20.375 35.527344 21.859375 36 22.042969 C 36.351562 22.183594 36.726562 22.132812 36.921875 21.6875 Z M 36.921875 21.6875 "/>
<path style=" stroke:none;fill-rule:nonzero;fill:rgb(100%,92.54902%,17.647059%);fill-opacity:1;" d="M 52.820312 18.714844 C 53.183594 19.046875 53.542969 18.964844 53.816406 18.707031 C 54.175781 18.371094 55.398438 16.285156 55.398438 16.285156 C 55.398438 16.285156 53.183594 17.4375 52.824219 17.773438 C 52.554688 18.03125 52.457031 18.375 52.820312 18.714844 Z M 52.820312 18.714844 "/>
<path style=" stroke:none;fill-rule:nonzero;fill:rgb(100%,92.54902%,17.647059%);fill-opacity:1;" d="M 52.820312 31.6875 C 52.460938 32.03125 52.554688 32.371094 52.824219 32.625 C 53.183594 32.964844 55.398438 34.113281 55.398438 34.113281 C 55.398438 34.113281 54.175781 32.03125 53.816406 31.691406 C 53.542969 31.4375 53.179688 31.347656 52.820312 31.6875 Z M 52.820312 31.6875 "/>
<path style=" stroke:none;fill-rule:nonzero;fill:rgb(100%,92.54902%,17.647059%);fill-opacity:1;" d="M 39.035156 31.6875 C 38.667969 31.351562 38.308594 31.4375 38.039062 31.691406 C 37.675781 32.03125 36.457031 34.113281 36.457031 34.113281 C 36.457031 34.113281 38.667969 32.964844 39.03125 32.625 C 39.300781 32.371094 39.394531 32.027344 39.035156 31.6875 Z M 39.035156 31.6875 "/>
<path style=" stroke:none;fill-rule:nonzero;fill:rgb(100%,92.54902%,17.647059%);fill-opacity:1;" d="M 39.035156 18.714844 C 39.390625 18.371094 39.300781 18.03125 39.03125 17.773438 C 38.667969 17.4375 36.457031 16.285156 36.457031 16.285156 C 36.457031 16.285156 37.675781 18.371094 38.039062 18.707031 C 38.308594 18.964844 38.671875 19.050781 39.035156 18.714844 Z M 39.035156 18.714844 "/>
<path style=" stroke:none;fill-rule:nonzero;fill:rgb(100%,92.54902%,17.647059%);fill-opacity:1;" d="M 54.933594 21.6875 C 55.132812 22.128906 55.5 22.183594 55.855469 22.042969 C 56.324219 21.859375 58.300781 20.375 58.300781 20.375 C 58.300781 20.375 55.789062 20.640625 55.316406 20.824219 C 54.964844 20.960938 54.738281 21.246094 54.933594 21.6875 Z M 54.933594 21.6875 "/>
<path style=" stroke:none;fill-rule:nonzero;fill:rgb(100%,92.54902%,17.647059%);fill-opacity:1;" d="M 49.65625 33.675781 C 49.1875 33.863281 49.132812 34.210938 49.28125 34.542969 C 49.476562 34.988281 51.050781 36.847656 51.050781 36.847656 C 51.050781 36.847656 50.769531 34.480469 50.574219 34.039062 C 50.429688 33.707031 50.128906 33.492188 49.65625 33.675781 Z M 49.65625 33.675781 "/>
<path style=" stroke:none;fill-rule:nonzero;fill:rgb(100%,92.54902%,17.647059%);fill-opacity:1;" d="M 36.921875 28.710938 C 36.71875 28.269531 36.351562 28.21875 36 28.355469 C 35.527344 28.539062 33.550781 30.023438 33.550781 30.023438 C 33.550781 30.023438 36.066406 29.757812 36.535156 29.574219 C 36.890625 29.4375 37.117188 29.152344 36.921875 28.710938 Z M 36.921875 28.710938 "/>
<path style=" stroke:none;fill-rule:nonzero;fill:rgb(100%,92.54902%,17.647059%);fill-opacity:1;" d="M 42.195312 16.722656 C 42.664062 16.535156 42.71875 16.1875 42.574219 15.855469 C 42.378906 15.414062 40.800781 13.554688 40.800781 13.554688 C 40.800781 13.554688 41.082031 15.917969 41.277344 16.363281 C 41.425781 16.695312 41.726562 16.90625 42.195312 16.722656 Z M 42.195312 16.722656 "/>
<path style=" stroke:none;fill-rule:nonzero;fill:rgb(100%,92.54902%,17.647059%);fill-opacity:1;" d="M 47.835938 16.203125 C 48.335938 16.292969 48.585938 16.03125 48.664062 15.679688 C 48.761719 15.210938 48.550781 12.839844 48.550781 12.839844 C 48.550781 12.839844 47.386719 14.949219 47.289062 15.421875 C 47.210938 15.773438 47.335938 16.109375 47.835938 16.203125 Z M 47.835938 16.203125 "/>
<path style=" stroke:none;fill-rule:nonzero;fill:rgb(100%,92.54902%,17.647059%);fill-opacity:1;" d="M 55.484375 26.996094 C 55.390625 27.46875 55.667969 27.703125 56.042969 27.773438 C 56.542969 27.871094 59.0625 27.671875 59.0625 27.671875 C 59.0625 27.671875 56.816406 26.574219 56.316406 26.480469 C 55.941406 26.410156 55.585938 26.527344 55.484375 26.996094 Z M 55.484375 26.996094 "/>
<path style=" stroke:none;fill-rule:nonzero;fill:rgb(100%,92.54902%,17.647059%);fill-opacity:1;" d="M 44.015625 34.195312 C 43.515625 34.109375 43.265625 34.367188 43.191406 34.71875 C 43.089844 35.191406 43.300781 37.5625 43.300781 37.5625 C 43.300781 37.5625 44.464844 35.449219 44.566406 34.980469 C 44.640625 34.625 44.515625 34.289062 44.015625 34.195312 Z M 44.015625 34.195312 "/>
<path style=" stroke:none;fill-rule:nonzero;fill:rgb(100%,92.54902%,17.647059%);fill-opacity:1;" d="M 36.367188 23.402344 C 36.460938 22.929688 36.1875 22.695312 35.8125 22.625 C 35.3125 22.53125 32.792969 22.730469 32.792969 22.730469 C 32.792969 22.730469 35.035156 23.824219 35.535156 23.917969 C 35.910156 23.988281 36.269531 23.875 36.367188 23.402344 Z M 36.367188 23.402344 "/>
<path style=" stroke:none;fill-rule:nonzero;fill:rgb(100%,92.54902%,17.647059%);fill-opacity:1;" d="M 51.347656 17.578125 C 51.777344 17.839844 52.113281 17.6875 52.324219 17.390625 C 52.609375 16.992188 53.378906 14.726562 53.378906 14.726562 C 53.378906 14.726562 51.445312 16.257812 51.160156 16.65625 C 50.945312 16.957031 50.925781 17.308594 51.347656 17.578125 Z M 51.347656 17.578125 "/>
<path style=" stroke:none;fill-rule:nonzero;fill:rgb(100%,92.54902%,17.647059%);fill-opacity:1;" d="M 54.027344 30.304688 C 53.75 30.707031 53.90625 31.023438 54.222656 31.222656 C 54.648438 31.488281 57.058594 32.210938 57.058594 32.210938 C 57.058594 32.210938 55.429688 30.390625 55.003906 30.125 C 54.6875 29.925781 54.308594 29.90625 54.027344 30.304688 Z M 54.027344 30.304688 "/>
<path style=" stroke:none;fill-rule:nonzero;fill:rgb(100%,92.54902%,17.647059%);fill-opacity:1;" d="M 40.503906 32.824219 C 40.078125 32.5625 39.742188 32.710938 39.527344 33.007812 C 39.242188 33.410156 38.476562 35.675781 38.476562 35.675781 C 38.476562 35.675781 40.410156 34.144531 40.691406 33.742188 C 40.90625 33.445312 40.929688 33.089844 40.503906 32.824219 Z M 40.503906 32.824219 "/>
<path style=" stroke:none;fill-rule:nonzero;fill:rgb(100%,92.54902%,17.647059%);fill-opacity:1;" d="M 37.828125 20.097656 C 38.105469 19.695312 37.945312 19.378906 37.628906 19.175781 C 37.203125 18.910156 34.796875 18.1875 34.796875 18.1875 C 34.796875 18.1875 36.425781 20.007812 36.847656 20.273438 C 37.167969 20.476562 37.542969 20.496094 37.828125 20.097656 Z M 37.828125 20.097656 "/>
<path style=" stroke:none;fill-rule:nonzero;fill:rgb(100%,92.54902%,17.647059%);fill-opacity:1;" d="M 54.035156 20.109375 C 54.324219 20.507812 54.695312 20.488281 55.015625 20.289062 C 55.4375 20.023438 57.070312 18.207031 57.070312 18.207031 C 57.070312 18.207031 54.660156 18.925781 54.234375 19.191406 C 53.917969 19.390625 53.753906 19.710938 54.035156 20.109375 Z M 54.035156 20.109375 "/>
<path style=" stroke:none;fill-rule:nonzero;fill:rgb(100%,92.54902%,17.647059%);fill-opacity:1;" d="M 51.335938 32.832031 C 50.914062 33.105469 50.933594 33.453125 51.144531 33.753906 C 51.425781 34.152344 53.359375 35.6875 53.359375 35.6875 C 53.359375 35.6875 52.59375 33.417969 52.3125 33.019531 C 52.097656 32.722656 51.757812 32.566406 51.335938 32.832031 Z M 51.335938 32.832031 "/>
<path style=" stroke:none;fill-rule:nonzero;fill:rgb(100%,92.54902%,17.647059%);fill-opacity:1;" d="M 37.816406 30.289062 C 37.527344 29.894531 37.15625 29.910156 36.839844 30.109375 C 36.414062 30.375 34.785156 32.195312 34.785156 32.195312 C 34.785156 32.195312 37.191406 31.476562 37.617188 31.207031 C 37.9375 31.007812 38.101562 30.691406 37.816406 30.289062 Z M 37.816406 30.289062 "/>
<path style=" stroke:none;fill-rule:nonzero;fill:rgb(100%,92.54902%,17.647059%);fill-opacity:1;" d="M 40.519531 17.566406 C 40.9375 17.296875 40.921875 16.945312 40.710938 16.648438 C 40.425781 16.246094 38.496094 14.710938 38.496094 14.710938 C 38.496094 14.710938 39.257812 16.980469 39.542969 17.378906 C 39.753906 17.679688 40.09375 17.832031 40.519531 17.566406 Z M 40.519531 17.566406 "/>
<path style=" stroke:none;fill-rule:nonzero;fill:rgb(100%,92.54902%,17.647059%);fill-opacity:1;" d="M 55.488281 23.417969 C 55.59375 23.886719 55.945312 24.007812 56.320312 23.9375 C 56.820312 23.84375 59.066406 22.75 59.066406 22.75 C 59.066406 22.75 56.546875 22.546875 56.046875 22.640625 C 55.671875 22.710938 55.390625 22.945312 55.488281 23.417969 Z M 55.488281 23.417969 "/>
<path style=" stroke:none;fill-rule:nonzero;fill:rgb(100%,92.54902%,17.647059%);fill-opacity:1;" d="M 47.820312 34.199219 C 47.320312 34.296875 47.195312 34.628906 47.269531 34.980469 C 47.367188 35.453125 48.527344 37.566406 48.527344 37.566406 C 48.527344 37.566406 48.746094 35.195312 48.644531 34.722656 C 48.570312 34.371094 48.320312 34.105469 47.820312 34.199219 Z M 47.820312 34.199219 "/>
<path style=" stroke:none;fill-rule:nonzero;fill:rgb(100%,92.54902%,17.647059%);fill-opacity:1;" d="M 36.363281 26.980469 C 36.257812 26.511719 35.910156 26.394531 35.535156 26.464844 C 35.035156 26.558594 32.789062 27.648438 32.789062 27.648438 C 32.789062 27.648438 35.304688 27.851562 35.808594 27.757812 C 36.183594 27.6875 36.464844 27.453125 36.363281 26.980469 Z M 36.363281 26.980469 "/>
<path style=" stroke:none;fill-rule:nonzero;fill:rgb(100%,92.54902%,17.647059%);fill-opacity:1;" d="M 44.035156 16.199219 C 44.53125 16.101562 44.65625 15.773438 44.582031 15.417969 C 44.484375 14.949219 43.324219 12.835938 43.324219 12.835938 C 43.324219 12.835938 43.109375 15.203125 43.207031 15.675781 C 43.28125 16.027344 43.53125 16.292969 44.035156 16.199219 Z M 44.035156 16.199219 "/>
<path style=" stroke:none;fill-rule:nonzero;fill:rgb(100%,92.54902%,17.647059%);fill-opacity:1;" d="M 45.632812 39.300781 C 45.410156 39.679688 45.273438 40.117188 44.996094 40.457031 C 44.128906 39.71875 42.878906 39.738281 41.78125 39.695312 C 40.875 39.648438 39.894531 39.570312 39.195312 38.964844 C 38.460938 38.394531 37.855469 37.660156 37.039062 37.199219 C 36.273438 37.042969 35.550781 36.730469 34.929688 36.28125 C 33.640625 35.292969 32.902344 33.820312 31.640625 32.800781 C 31.402344 32.585938 31.117188 32.410156 30.847656 32.226562 C 30.59375 32.285156 30.707031 32.800781 30.394531 32.539062 C 30.222656 32.417969 29.796875 32.410156 29.757812 32.574219 C 30.140625 33.054688 30.53125 33.59375 30.585938 34.207031 C 30.320312 34.230469 29.855469 34.152344 29.726562 34.242188 C 30.078125 34.738281 30.515625 35.167969 31.027344 35.519531 C 30.785156 35.554688 30.308594 35.539062 30.210938 35.628906 C 30.6875 36.058594 31.277344 36.363281 31.917969 36.511719 C 32.046875 36.679688 31.722656 37.003906 32.003906 37.144531 C 32.160156 37.207031 32.699219 37.3125 32.328125 37.488281 C 32.074219 37.644531 32.167969 38.023438 32.492188 38.011719 C 32.699219 38.113281 33.15625 38.128906 33.195312 38.308594 C 33.007812 38.476562 32.449219 38.683594 32.925781 38.851562 C 33.378906 39.089844 33.882812 39.226562 34.398438 39.253906 C 34.144531 39.457031 33.824219 39.570312 33.5625 39.761719 C 34.742188 40.414062 36.050781 40.84375 37.351562 41.261719 C 37.859375 41.417969 38.390625 41.566406 38.925781 41.664062 C 37.371094 41.578125 35.867188 41.148438 34.449219 40.554688 C 33.71875 40.253906 32.984375 39.960938 32.230469 39.703125 C 32.558594 39.539062 32.941406 39.496094 33.285156 39.359375 C 32.570312 39.226562 31.796875 39.179688 31.179688 38.820312 C 31.269531 38.652344 31.625 38.644531 31.832031 38.5625 C 32.210938 38.476562 32.441406 38.382812 31.914062 38.347656 C 31.378906 38.207031 30.765625 38.269531 30.289062 37.96875 C 30.320312 37.789062 30.816406 37.847656 31.015625 37.769531 C 31.269531 37.726562 31.550781 37.691406 31.753906 37.53125 C 30.925781 37.210938 29.839844 37.441406 29.191406 36.75 C 29.042969 36.484375 29.65625 36.695312 29.828125 36.652344 C 30.273438 36.652344 30.753906 36.785156 31.179688 36.617188 C 29.96875 36.121094 28.675781 35.65625 27.757812 34.734375 C 27.65625 34.585938 27.347656 34.175781 27.597656 34.128906 C 28.3125 34.21875 28.828125 34.949219 29.597656 34.835938 C 29.699219 34.710938 29.152344 34.5 29.011719 34.3125 C 27.859375 33.441406 26.851562 32.410156 26.027344 31.253906 C 25.976562 30.851562 26.632812 30.792969 26.808594 31.097656 C 27.660156 31.878906 28.433594 32.777344 29.496094 33.304688 C 29.878906 33.480469 29.28125 33.101562 29.203125 32.964844 C 28.191406 31.90625 27.316406 30.742188 26.597656 29.488281 C 26.46875 29.261719 26.269531 28.847656 26.640625 28.726562 C 27.003906 28.554688 27.375 28.789062 27.558594 29.089844 C 28.28125 29.945312 28.816406 30.964844 29.714844 31.679688 C 28.949219 30.28125 28.125 28.800781 28.105469 27.191406 C 28.125 26.878906 28.144531 26.410156 28.597656 26.417969 C 28.980469 26.363281 28.917969 26.820312 29.042969 27.035156 C 29.414062 28.222656 29.574219 29.507812 30.320312 30.550781 C 30.160156 29.675781 29.910156 28.769531 30.078125 27.875 C 30.117188 27.574219 30.460938 27.492188 30.695312 27.671875 C 30.878906 28.09375 30.917969 28.625 31.085938 29.082031 C 32.078125 32.1875 34.171875 34.882812 37.011719 36.714844 C 39.339844 38.214844 42.058594 39.089844 44.875 39.253906 C 45.128906 39.277344 45.382812 39.28125 45.632812 39.292969 M 54.328125 44.761719 C 53.867188 45.023438 53.511719 44.554688 53.128906 44.417969 C 52.847656 44.5625 52.824219 45.03125 52.566406 45.257812 C 52.261719 45.589844 51.878906 45.160156 51.910156 44.839844 C 51.542969 45.132812 51.355469 45.796875 50.765625 45.703125 C 50.476562 45.484375 50.265625 45.03125 50.050781 45.550781 C 49.878906 45.804688 49.414062 46.164062 49.164062 45.78125 C 49.085938 45.445312 48.910156 45.046875 48.71875 45.582031 C 48.578125 45.964844 48.144531 46.242188 47.734375 46.074219 C 47.507812 45.898438 47.914062 45.253906 47.628906 45.292969 C 47.195312 45.570312 46.9375 46.234375 46.332031 46.183594 C 46.097656 45.941406 46.480469 45.515625 46.21875 45.238281 C 45.917969 45.605469 45.582031 46.144531 45.050781 46.183594 C 44.796875 45.988281 45.066406 45.433594 44.898438 45.355469 C 44.363281 45.652344 43.789062 46.199219 43.113281 46.03125 C 43.375 45.070312 44.484375 44.742188 45.410156 44.671875 C 47.007812 44.484375 48.691406 44.824219 50.234375 44.28125 C 50.484375 44.136719 51.082031 43.9375 50.871094 43.609375 C 50.679688 43.34375 51.363281 43.445312 51.425781 43.140625 C 51.390625 42.757812 51.746094 42.808594 52.089844 42.78125 C 53.644531 42.714844 55.183594 43.019531 56.730469 43.074219 C 56.847656 43.78125 56.011719 44.28125 55.328125 44.0625 C 55.011719 44.113281 54.53125 43.367188 54.628906 43.90625 C 54.5625 44.195312 54.601562 44.566406 54.328125 44.761719 M 41.105469 43.308594 C 41.464844 43.613281 41.71875 43.246094 42.054688 43.109375 C 43.160156 42.703125 44.195312 42.152344 45.136719 41.472656 C 45.722656 41.015625 46.230469 40.421875 47.023438 40.273438 C 48.566406 39.835938 50.203125 39.886719 51.746094 39.480469 C 52.925781 37.96875 54.921875 37.421875 56.597656 36.550781 C 56.972656 36.445312 57.121094 36.148438 57.234375 35.832031 C 57.871094 34.878906 58.746094 34.039062 59.777344 33.460938 C 60.265625 33.191406 60.839844 33.09375 61.398438 33.1875 C 61.320312 33.796875 61.011719 34.363281 60.523438 34.777344 C 60.898438 34.769531 61.226562 34.546875 61.59375 34.558594 C 61.722656 35.195312 60.996094 35.527344 60.605469 35.921875 C 60.824219 35.96875 61.652344 36.03125 61.199219 36.234375 C 60.625 36.605469 59.96875 36.863281 59.441406 37.300781 C 59.929688 37.386719 59.988281 37.480469 59.492188 37.648438 C 59.21875 37.816406 58.699219 37.878906 58.648438 38.214844 C 59.019531 38.429688 58.484375 38.632812 58.273438 38.707031 C 57.878906 38.796875 57.457031 38.957031 57.988281 39.246094 C 57.789062 39.527344 57.355469 39.589844 57.003906 39.558594 C 57.113281 39.882812 57.265625 40.242188 56.828125 40.386719 C 55.839844 41.121094 54.65625 41.585938 53.410156 41.730469 C 54.972656 41.839844 56.585938 41.566406 57.917969 40.769531 C 58.09375 40.570312 59.019531 40.355469 58.503906 40.195312 C 58.261719 40.097656 57.738281 39.988281 57.699219 39.816406 C 58.425781 39.394531 59.339844 39.546875 60.117188 39.300781 C 60.136719 39.058594 59.523438 39.125 59.292969 39.070312 C 58.753906 39.03125 58.785156 38.898438 59.304688 38.851562 C 59.96875 38.683594 60.722656 38.652344 61.28125 38.25 C 60.832031 38.046875 60.257812 38.21875 59.773438 38.058594 C 60.59375 37.722656 61.5625 37.6875 62.304688 37.175781 C 62.640625 36.820312 61.871094 36.9375 61.644531 36.941406 C 61.195312 37.019531 60.984375 36.808594 61.5 36.636719 C 62.386719 36.019531 63.5 35.621094 64.125 34.734375 C 64.273438 34.535156 64.46875 33.9375 64 34.144531 C 63.386719 34.34375 62.84375 34.992188 62.136719 34.792969 C 63.527344 33.78125 64.839844 32.632812 65.789062 31.234375 C 65.839844 30.828125 65.164062 30.785156 64.992188 31.105469 C 64.101562 31.90625 63.296875 32.863281 62.15625 33.371094 C 63.230469 32.359375 64.164062 31.222656 64.9375 29.988281 C 65.109375 29.628906 65.558594 29.191406 65.316406 28.789062 C 64.917969 28.476562 64.417969 28.765625 64.214844 29.128906 C 63.519531 29.980469 62.996094 30.972656 62.113281 31.667969 C 62.882812 30.269531 63.691406 28.777344 63.707031 27.167969 C 63.707031 26.832031 63.640625 26.339844 63.15625 26.40625 C 62.773438 26.464844 62.871094 27.007812 62.710938 27.277344 C 62.367188 28.378906 62.199219 29.574219 61.5 30.535156 C 61.660156 29.640625 61.933594 28.703125 61.722656 27.804688 C 61.621094 27.394531 60.925781 27.570312 61.023438 27.972656 C 60.191406 31.925781 57.367188 35.382812 53.691406 37.378906 C 52 38.28125 50.121094 38.855469 48.195312 39.121094 C 47.683594 39.222656 47.125 39.160156 46.632812 39.328125 C 45.433594 40.1875 44.714844 41.632812 43.203125 42.085938 C 42.519531 42.402344 41.640625 42.46875 41.15625 43.054688 C 41.117188 43.132812 41.101562 43.222656 41.105469 43.308594 M 44.402344 42.691406 C 44.171875 42.703125 43.949219 42.726562 43.726562 42.792969 C 43.425781 42.835938 43.140625 42.929688 42.847656 42.972656 L 42.726562 42.996094 L 42.527344 43.015625 C 42.554688 43.113281 42.554688 43.21875 42.527344 43.320312 C 42.507812 43.367188 42.476562 43.40625 42.4375 43.441406 C 42.398438 43.488281 42.355469 43.523438 42.296875 43.546875 C 42.246094 43.570312 42.191406 43.585938 42.132812 43.589844 C 42.074219 43.589844 42.019531 43.589844 41.960938 43.566406 C 41.902344 43.546875 41.851562 43.519531 41.800781 43.476562 L 41.621094 43.507812 L 41.457031 43.507812 L 41.277344 43.445312 C 41.21875 43.425781 41.164062 43.398438 41.113281 43.367188 C 40.894531 43.488281 40.652344 43.601562 40.519531 43.8125 C 40.457031 43.90625 40.421875 44.015625 40.417969 44.128906 C 40.40625 44.273438 40.441406 44.417969 40.507812 44.550781 C 40.53125 44.585938 40.550781 44.410156 40.621094 44.386719 C 40.742188 44.292969 40.894531 44.226562 41.046875 44.191406 C 41.175781 44.128906 41.15625 44.191406 41.105469 44.285156 C 41.09375 44.339844 41.023438 44.527344 41.117188 44.429688 C 41.558594 44.273438 42.023438 44.191406 42.496094 44.183594 C 43.171875 44.117188 43.847656 44.101562 44.523438 44.09375 L 46.433594 44.128906 C 46.742188 44.140625 47.046875 44.203125 47.347656 44.152344 C 47.417969 44.136719 47.53125 44.136719 47.578125 44.09375 C 47.4375 44.023438 47.277344 44.015625 47.128906 43.996094 L 45.914062 43.996094 C 45.574219 43.96875 45.222656 43.960938 44.90625 43.84375 C 44.816406 43.8125 44.738281 43.734375 44.65625 43.816406 C 44.535156 43.859375 44.410156 43.886719 44.28125 43.894531 C 44.058594 43.90625 43.835938 43.867188 43.628906 43.789062 C 43.777344 43.597656 43.957031 43.429688 44.121094 43.246094 L 43.726562 43.171875 C 43.960938 43.019531 44.171875 42.847656 44.402344 42.691406 Z M 44.402344 42.691406 "/>
<path style=" stroke:none;fill-rule:nonzero;fill:rgb(100%,92.54902%,17.647059%);fill-opacity:1;" d="M 42.226562 43.253906 C 42.226562 43.332031 42.160156 43.398438 42.074219 43.398438 C 41.992188 43.398438 41.921875 43.332031 41.921875 43.253906 C 41.921875 43.175781 41.992188 43.109375 42.074219 43.109375 C 42.160156 43.109375 42.226562 43.175781 42.226562 43.253906 Z M 42.226562 43.253906 "/>
<path style="fill-rule:nonzero;fill:rgb(100%,92.54902%,17.647059%);fill-opacity:1;stroke-width:0.4;stroke-linecap:butt;stroke-linejoin:miter;stroke:rgb(100%,92.54902%,17.647059%);stroke-opacity:1;stroke-miterlimit:4;" d="M 1020.784314 720.507812 C 1020.784314 721.028646 1020.355392 721.484375 1019.803922 721.484375 C 1019.252451 721.484375 1018.823529 721.028646 1018.823529 720.507812 C 1018.823529 719.921875 1019.252451 719.53125 1019.803922 719.53125 C 1020.355392 719.53125 1020.784314 719.921875 1020.784314 720.507812 Z M 1020.784314 720.507812 " transform="matrix(0.06375,0,0,0.06,-22.95,0)"/>
<path style=" stroke:none;fill-rule:nonzero;fill:rgb(100%,92.54902%,17.647059%);fill-opacity:1;" d="M 7.648438 4.378906 C 7.648438 4.378906 7.039062 3.886719 6.828125 4.132812 C 6.496094 4.523438 7.859375 6.472656 7.859375 7.15625 C 7.859375 8.285156 7.058594 8.59375 6.074219 8.746094 C 5.414062 8.855469 4.335938 8.707031 4.335938 8.707031 C 4.539062 8.449219 4.671875 8.371094 5.011719 8.351562 C 4.628906 8.171875 4.246094 7.765625 4.246094 7.132812 C 4.246094 6.167969 4.667969 5.765625 4.667969 4.675781 C 4.667969 4.078125 4.144531 3.300781 4.144531 3.300781 C 5.074219 3.390625 5.535156 4.199219 5.273438 4.847656 C 5.417969 4.875 5.570312 4.832031 5.671875 4.734375 C 5.738281 4.914062 5.636719 5.125 5.488281 5.304688 C 5.605469 5.363281 5.691406 5.328125 5.871094 5.292969 C 5.859375 5.472656 5.742188 5.675781 5.449219 5.863281 C 6.292969 5.65625 6.800781 6.203125 6.800781 6.78125 C 6.800781 7.21875 6.484375 7.53125 6.164062 7.53125 C 6.0625 7.53125 5.910156 7.488281 5.828125 7.429688 C 5.761719 7.546875 5.800781 7.710938 5.859375 7.828125 C 5.628906 7.769531 5.476562 7.636719 5.585938 7.367188 C 5.40625 7.355469 5.265625 7.296875 5.171875 7.1875 C 5.265625 7.066406 5.414062 7.007812 5.585938 7.007812 C 5.457031 6.757812 5.605469 6.617188 5.8125 6.503906 C 5.8125 6.503906 5.679688 7.007812 6.019531 7.007812 C 6.171875 7.007812 6.3125 6.964844 6.3125 6.75 C 6.3125 6.5625 6.140625 6.304688 5.738281 6.324219 C 5.34375 6.34375 5.015625 6.582031 5.015625 7.183594 C 5.015625 7.734375 5.496094 8.011719 6.121094 8.023438 C 6.679688 8.046875 7.109375 7.757812 7.109375 7.210938 C 7.109375 6.480469 5.992188 4.824219 5.992188 4.175781 C 5.992188 3.691406 6.453125 3.414062 6.910156 3.414062 C 7.496094 3.414062 7.996094 3.964844 7.996094 3.964844 L 7.648438 4.375 Z M 7.648438 4.378906 "/>
<path style=" stroke:none;fill-rule:nonzero;fill:rgb(100%,92.54902%,17.647059%);fill-opacity:1;" d="M 7.777344 17.527344 C 7.777344 18.742188 6.617188 19.367188 5.707031 19.367188 C 4.480469 19.367188 3.824219 18.679688 3.824219 17.773438 C 3.824219 17.261719 3.925781 16.9375 4.175781 16.453125 L 6.992188 10.949219 C 7.09375 10.71875 7.140625 10.46875 7.121094 10.21875 C 7.121094 9.726562 6.609375 9.324219 6.082031 9.316406 C 5.597656 9.300781 5.0625 9.738281 5.0625 10.234375 C 5.0625 10.84375 5.398438 11.113281 5.742188 11.113281 C 6.164062 11.113281 6.332031 10.949219 6.332031 10.667969 C 6.332031 10.476562 6.234375 10.390625 6.089844 10.390625 C 5.726562 10.390625 5.832031 10.847656 5.832031 10.847656 C 5.734375 10.832031 5.652344 10.773438 5.605469 10.691406 C 5.554688 10.613281 5.546875 10.515625 5.585938 10.429688 C 5.449219 10.398438 5.324219 10.328125 5.234375 10.230469 C 5.328125 10.140625 5.445312 10.074219 5.585938 10.050781 C 5.5 9.785156 5.617188 9.660156 5.859375 9.601562 C 5.816406 9.691406 5.804688 9.792969 5.828125 9.886719 C 6.210938 9.78125 6.800781 9.949219 6.800781 10.570312 C 6.800781 11.195312 6.34375 11.71875 5.484375 11.59375 C 5.6875 11.683594 5.789062 11.867188 5.8125 12.078125 C 5.65625 12.019531 5.484375 12.019531 5.484375 12.019531 C 5.585938 12.179688 5.726562 12.316406 5.71875 12.652344 C 5.558594 12.582031 5.40625 12.457031 5.207031 12.535156 C 5.527344 13.132812 5.132812 13.949219 4.125 14.140625 C 4.496094 13.734375 4.671875 13.300781 4.671875 12.863281 C 4.671875 11.453125 4.257812 11.21875 4.257812 10.234375 C 4.273438 9.773438 4.519531 9.34375 4.929688 9.085938 L 4.929688 9.101562 C 4.679688 9.054688 4.460938 8.90625 4.335938 8.699219 C 5.046875 8.515625 5.796875 8.523438 6.503906 8.71875 C 6.980469 8.78125 7.402344 9.046875 7.648438 9.4375 C 7.90625 9.992188 7.90625 10.621094 7.648438 11.171875 C 7.25 11.953125 5.375 15.707031 4.789062 16.882812 C 4.660156 17.136719 4.589844 17.398438 4.589844 17.6875 C 4.589844 18.40625 5.292969 18.660156 5.6875 18.660156 C 6.164062 18.660156 6.65625 18.316406 6.65625 17.890625 C 6.65625 17.621094 6.496094 17.453125 6.273438 17.453125 C 5.730469 17.453125 5.761719 17.886719 5.871094 18.160156 C 5.535156 18.019531 5.34375 17.765625 5.394531 17.503906 C 5.183594 17.46875 4.996094 17.367188 4.859375 17.214844 C 4.984375 17.058594 5.152344 16.9375 5.394531 16.933594 C 5.285156 16.519531 5.585938 16.34375 5.871094 16.246094 C 5.78125 16.546875 5.71875 16.902344 6.273438 16.902344 C 6.675781 16.902344 6.988281 16.960938 7.171875 17.214844 L 7.214844 15.59375 C 7.242188 15.109375 6.527344 15.113281 6.070312 15.265625 C 6.242188 14.707031 6.589844 14.398438 7.40625 14.476562 C 7.152344 14.386719 6.988281 14.148438 7 13.890625 C 7 13.433594 7.394531 12.929688 7.648438 12.78125 L 7.777344 17.519531 Z M 7.777344 17.527344 "/>
<path style=" stroke:none;fill-rule:nonzero;fill:rgb(100%,92.54902%,17.647059%);fill-opacity:1;" d="M 7.777344 21.175781 C 7.777344 19.957031 6.617188 19.332031 5.707031 19.332031 C 4.480469 19.332031 3.824219 20.023438 3.824219 20.929688 C 3.824219 21.4375 3.925781 21.761719 4.175781 22.246094 L 6.992188 27.75 C 7.09375 27.980469 7.140625 28.230469 7.121094 28.480469 C 7.121094 28.972656 6.609375 29.375 6.082031 29.382812 C 5.597656 29.398438 5.0625 28.960938 5.0625 28.464844 C 5.0625 27.859375 5.398438 27.589844 5.742188 27.589844 C 6.164062 27.589844 6.332031 27.75 6.332031 28.03125 C 6.332031 28.222656 6.234375 28.308594 6.089844 28.308594 C 5.726562 28.308594 5.832031 27.851562 5.832031 27.851562 C 5.734375 27.867188 5.652344 27.925781 5.605469 28.007812 C 5.554688 28.089844 5.546875 28.183594 5.585938 28.273438 C 5.449219 28.300781 5.324219 28.371094 5.234375 28.46875 C 5.328125 28.558594 5.445312 28.625 5.585938 28.648438 C 5.5 28.914062 5.617188 29.039062 5.859375 29.101562 C 5.816406 29.011719 5.804688 28.910156 5.828125 28.8125 C 6.210938 28.921875 6.800781 28.753906 6.800781 28.128906 C 6.800781 27.503906 6.34375 26.980469 5.484375 27.109375 C 5.6875 27.019531 5.789062 26.832031 5.8125 26.621094 C 5.65625 26.683594 5.484375 26.683594 5.484375 26.683594 C 5.585938 26.519531 5.726562 26.382812 5.71875 26.046875 C 5.558594 26.117188 5.40625 26.242188 5.207031 26.164062 C 5.527344 25.566406 5.132812 24.75 4.125 24.558594 C 4.496094 24.964844 4.671875 25.398438 4.671875 25.835938 C 4.671875 27.246094 4.257812 27.480469 4.257812 28.464844 C 4.273438 28.925781 4.519531 29.355469 4.929688 29.617188 L 4.929688 29.597656 C 4.679688 29.644531 4.460938 29.792969 4.335938 30 C 5.046875 30.183594 5.796875 30.179688 6.503906 29.980469 C 6.980469 29.917969 7.402344 29.652344 7.648438 29.261719 C 7.90625 28.710938 7.90625 28.082031 7.648438 27.527344 C 7.25 26.746094 5.375 22.992188 4.789062 21.816406 C 4.660156 21.5625 4.589844 21.300781 4.589844 21.011719 C 4.589844 20.292969 5.292969 20.039062 5.6875 20.039062 C 6.164062 20.039062 6.65625 20.382812 6.65625 20.808594 C 6.65625 21.078125 6.496094 21.246094 6.273438 21.246094 C 5.730469 21.246094 5.761719 20.8125 5.871094 20.539062 C 5.535156 20.683594 5.34375 20.933594 5.394531 21.199219 C 5.183594 21.230469 4.996094 21.332031 4.859375 21.484375 C 4.984375 21.640625 5.152344 21.761719 5.394531 21.769531 C 5.285156 22.183594 5.585938 22.355469 5.871094 22.453125 C 5.78125 22.152344 5.71875 21.796875 6.273438 21.796875 C 6.675781 21.796875 6.988281 21.738281 7.171875 21.484375 L 7.214844 23.105469 C 7.242188 23.59375 6.527344 23.585938 6.070312 23.4375 C 6.242188 23.992188 6.589844 24.300781 7.40625 24.222656 C 7.152344 24.316406 6.988281 24.550781 7 24.808594 C 7 25.265625 7.394531 25.769531 7.648438 25.921875 L 7.777344 21.179688 Z M 7.777344 21.175781 "/>
<path style=" stroke:none;fill-rule:nonzero;fill:rgb(100%,92.54902%,17.647059%);fill-opacity:1;" d="M 7.648438 4.378906 C 7.648438 4.378906 8.261719 3.886719 8.472656 4.132812 C 8.804688 4.523438 7.441406 6.472656 7.441406 7.15625 C 7.441406 8.285156 8.242188 8.59375 9.226562 8.746094 C 9.886719 8.855469 10.964844 8.707031 10.964844 8.707031 C 10.761719 8.449219 10.628906 8.371094 10.289062 8.351562 C 10.671875 8.171875 11.054688 7.765625 11.054688 7.132812 C 11.054688 6.167969 10.632812 5.765625 10.632812 4.675781 C 10.632812 4.078125 11.15625 3.300781 11.15625 3.300781 C 10.226562 3.390625 9.765625 4.199219 10.027344 4.847656 C 9.882812 4.875 9.730469 4.832031 9.625 4.734375 C 9.5625 4.914062 9.664062 5.125 9.8125 5.304688 C 9.695312 5.363281 9.605469 5.328125 9.429688 5.292969 C 9.441406 5.472656 9.554688 5.675781 9.847656 5.863281 C 9.007812 5.65625 8.496094 6.203125 8.496094 6.78125 C 8.496094 7.21875 8.816406 7.53125 9.136719 7.53125 C 9.238281 7.53125 9.390625 7.488281 9.472656 7.429688 C 9.535156 7.546875 9.5 7.710938 9.441406 7.828125 C 9.671875 7.769531 9.824219 7.636719 9.714844 7.367188 C 9.894531 7.355469 10.035156 7.296875 10.128906 7.1875 C 10.035156 7.066406 9.886719 7.007812 9.714844 7.007812 C 9.84375 6.757812 9.695312 6.617188 9.484375 6.503906 C 9.484375 6.503906 9.621094 7.007812 9.28125 7.007812 C 9.128906 7.007812 8.988281 6.964844 8.988281 6.75 C 8.988281 6.5625 9.160156 6.304688 9.5625 6.324219 C 9.957031 6.34375 10.28125 6.582031 10.28125 7.183594 C 10.28125 7.734375 9.804688 8.011719 9.179688 8.023438 C 8.617188 8.046875 8.191406 7.757812 8.191406 7.210938 C 8.191406 6.480469 9.308594 4.824219 9.308594 4.175781 C 9.308594 3.691406 8.847656 3.414062 8.390625 3.414062 C 7.804688 3.414062 7.304688 3.964844 7.304688 3.964844 L 7.648438 4.375 Z M 7.648438 4.378906 "/>
<path style=" stroke:none;fill-rule:nonzero;fill:rgb(100%,92.54902%,17.647059%);fill-opacity:1;" d="M 7.523438 17.527344 C 7.523438 18.742188 8.683594 19.367188 9.59375 19.367188 C 10.820312 19.367188 11.476562 18.679688 11.476562 17.773438 C 11.476562 17.261719 11.371094 16.9375 11.125 16.453125 L 8.304688 10.949219 C 8.203125 10.71875 8.160156 10.46875 8.179688 10.21875 C 8.179688 9.726562 8.6875 9.324219 9.21875 9.316406 C 9.703125 9.300781 10.238281 9.738281 10.238281 10.234375 C 10.238281 10.84375 9.898438 11.113281 9.554688 11.113281 C 9.136719 11.113281 8.96875 10.949219 8.96875 10.667969 C 8.96875 10.476562 9.066406 10.390625 9.210938 10.390625 C 9.574219 10.390625 9.46875 10.847656 9.46875 10.847656 C 9.5625 10.832031 9.648438 10.773438 9.695312 10.691406 C 9.746094 10.613281 9.75 10.515625 9.714844 10.429688 C 9.851562 10.398438 9.976562 10.328125 10.066406 10.230469 C 9.96875 10.140625 9.855469 10.074219 9.714844 10.050781 C 9.796875 9.785156 9.683594 9.660156 9.441406 9.601562 C 9.484375 9.691406 9.496094 9.792969 9.472656 9.886719 C 9.089844 9.78125 8.496094 9.949219 8.496094 10.570312 C 8.496094 11.195312 8.957031 11.71875 9.816406 11.59375 C 9.613281 11.683594 9.511719 11.867188 9.484375 12.078125 C 9.644531 12.019531 9.816406 12.019531 9.816406 12.019531 C 9.714844 12.179688 9.574219 12.316406 9.582031 12.652344 C 9.742188 12.582031 9.894531 12.457031 10.089844 12.535156 C 9.773438 13.132812 10.167969 13.949219 11.175781 14.140625 C 10.804688 13.734375 10.628906 13.300781 10.628906 12.863281 C 10.628906 11.453125 11.042969 11.21875 11.042969 10.234375 C 11.027344 9.773438 10.777344 9.34375 10.371094 9.085938 L 10.371094 9.101562 C 10.621094 9.054688 10.835938 8.90625 10.964844 8.699219 C 10.253906 8.515625 9.503906 8.523438 8.796875 8.71875 C 8.320312 8.78125 7.898438 9.046875 7.648438 9.4375 C 7.394531 9.992188 7.394531 10.621094 7.648438 11.171875 C 8.050781 11.953125 9.925781 15.707031 10.511719 16.882812 C 10.640625 17.136719 10.710938 17.398438 10.710938 17.6875 C 10.710938 18.40625 10.007812 18.660156 9.613281 18.660156 C 9.136719 18.660156 8.644531 18.316406 8.644531 17.890625 C 8.644531 17.621094 8.804688 17.453125 9.027344 17.453125 C 9.570312 17.453125 9.535156 17.886719 9.429688 18.160156 C 9.765625 18.019531 9.957031 17.765625 9.90625 17.503906 C 10.117188 17.46875 10.304688 17.367188 10.441406 17.214844 C 10.316406 17.058594 10.148438 16.9375 9.90625 16.933594 C 10.015625 16.519531 9.714844 16.34375 9.429688 16.246094 C 9.519531 16.546875 9.582031 16.902344 9.027344 16.902344 C 8.625 16.902344 8.3125 16.960938 8.128906 17.214844 L 8.082031 15.59375 C 8.058594 15.109375 8.773438 15.113281 9.230469 15.265625 C 9.058594 14.707031 8.707031 14.398438 7.890625 14.476562 C 8.148438 14.386719 8.3125 14.148438 8.300781 13.890625 C 8.300781 13.433594 7.90625 12.929688 7.648438 12.78125 L 7.523438 17.519531 Z M 7.523438 17.527344 "/>
<path style=" stroke:none;fill-rule:nonzero;fill:rgb(100%,92.54902%,17.647059%);fill-opacity:1;" d="M 7.523438 21.175781 C 7.523438 19.957031 8.683594 19.332031 9.59375 19.332031 C 10.820312 19.332031 11.476562 20.023438 11.476562 20.929688 C 11.476562 21.4375 11.371094 21.761719 11.125 22.246094 L 8.304688 27.75 C 8.203125 27.980469 8.160156 28.230469 8.179688 28.480469 C 8.179688 28.972656 8.6875 29.375 9.21875 29.382812 C 9.703125 29.398438 10.238281 28.960938 10.238281 28.464844 C 10.238281 27.859375 9.898438 27.589844 9.554688 27.589844 C 9.136719 27.589844 8.96875 27.75 8.96875 28.03125 C 8.96875 28.222656 9.066406 28.308594 9.210938 28.308594 C 9.574219 28.308594 9.46875 27.851562 9.46875 27.851562 C 9.5625 27.867188 9.648438 27.925781 9.695312 28.007812 C 9.746094 28.089844 9.75 28.183594 9.714844 28.273438 C 9.851562 28.300781 9.976562 28.371094 10.066406 28.46875 C 9.96875 28.558594 9.855469 28.625 9.714844 28.648438 C 9.796875 28.914062 9.683594 29.039062 9.441406 29.101562 C 9.484375 29.011719 9.496094 28.910156 9.472656 28.8125 C 9.089844 28.921875 8.496094 28.753906 8.496094 28.128906 C 8.496094 27.503906 8.957031 26.980469 9.816406 27.109375 C 9.613281 27.019531 9.511719 26.832031 9.484375 26.621094 C 9.644531 26.683594 9.816406 26.683594 9.816406 26.683594 C 9.714844 26.519531 9.574219 26.382812 9.582031 26.046875 C 9.742188 26.117188 9.894531 26.242188 10.089844 26.164062 C 9.773438 25.566406 10.167969 24.75 11.175781 24.558594 C 10.804688 24.964844 10.628906 25.398438 10.628906 25.835938 C 10.628906 27.246094 11.042969 27.480469 11.042969 28.464844 C 11.027344 28.925781 10.777344 29.355469 10.371094 29.617188 L 10.371094 29.597656 C 10.621094 29.644531 10.835938 29.792969 10.964844 30 C 10.253906 30.183594 9.503906 30.179688 8.796875 29.980469 C 8.320312 29.917969 7.898438 29.652344 7.648438 29.261719 C 7.394531 28.710938 7.394531 28.082031 7.648438 27.527344 C 8.050781 26.746094 9.925781 22.992188 10.511719 21.816406 C 10.640625 21.5625 10.710938 21.300781 10.710938 21.011719 C 10.710938 20.292969 10.007812 20.039062 9.613281 20.039062 C 9.136719 20.039062 8.644531 20.382812 8.644531 20.808594 C 8.644531 21.078125 8.804688 21.246094 9.027344 21.246094 C 9.570312 21.246094 9.535156 20.8125 9.429688 20.539062 C 9.765625 20.683594 9.957031 20.933594 9.90625 21.199219 C 10.117188 21.230469 10.304688 21.332031 10.441406 21.484375 C 10.316406 21.640625 10.148438 21.761719 9.90625 21.769531 C 10.015625 22.183594 9.714844 22.355469 9.429688 22.453125 C 9.519531 22.152344 9.582031 21.796875 9.027344 21.796875 C 8.625 21.796875 8.3125 21.738281 8.128906 21.484375 L 8.082031 23.105469 C 8.058594 23.59375 8.773438 23.585938 9.230469 23.4375 C 9.058594 23.992188 8.707031 24.300781 7.890625 24.222656 C 8.148438 24.316406 8.3125 24.550781 8.300781 24.808594 C 8.300781 25.265625 7.90625 25.769531 7.648438 25.921875 L 7.523438 21.179688 Z M 7.523438 21.175781 "/>
<path style=" stroke:none;fill-rule:nonzero;fill:rgb(100%,92.54902%,17.647059%);fill-opacity:1;" d="M 7.648438 55.621094 C 7.648438 55.621094 7.039062 56.113281 6.828125 55.867188 C 6.496094 55.476562 7.859375 53.527344 7.859375 52.84375 C 7.859375 51.714844 7.058594 51.40625 6.074219 51.253906 C 5.414062 51.144531 4.335938 51.292969 4.335938 51.292969 C 4.539062 51.550781 4.671875 51.628906 5.011719 51.648438 C 4.628906 51.828125 4.246094 52.234375 4.246094 52.867188 C 4.246094 53.832031 4.667969 54.234375 4.667969 55.324219 C 4.667969 55.921875 4.144531 56.699219 4.144531 56.699219 C 5.074219 56.609375 5.535156 55.800781 5.273438 55.152344 C 5.417969 55.125 5.570312 55.167969 5.671875 55.265625 C 5.738281 55.085938 5.636719 54.875 5.488281 54.695312 C 5.605469 54.636719 5.691406 54.671875 5.871094 54.707031 C 5.859375 54.527344 5.742188 54.324219 5.449219 54.136719 C 6.292969 54.34375 6.800781 53.796875 6.800781 53.21875 C 6.800781 52.78125 6.484375 52.46875 6.164062 52.46875 C 6.0625 52.46875 5.910156 52.511719 5.828125 52.570312 C 5.761719 52.453125 5.800781 52.289062 5.859375 52.171875 C 5.628906 52.230469 5.476562 52.363281 5.585938 52.632812 C 5.40625 52.644531 5.265625 52.703125 5.171875 52.8125 C 5.265625 52.933594 5.414062 52.992188 5.585938 52.992188 C 5.457031 53.242188 5.605469 53.382812 5.8125 53.496094 C 5.8125 53.496094 5.679688 52.992188 6.019531 52.992188 C 6.171875 52.992188 6.3125 53.035156 6.3125 53.25 C 6.3125 53.4375 6.140625 53.695312 5.738281 53.675781 C 5.34375 53.65625 5.015625 53.417969 5.015625 52.816406 C 5.015625 52.265625 5.496094 51.988281 6.121094 51.976562 C 6.679688 51.953125 7.109375 52.242188 7.109375 52.789062 C 7.109375 53.519531 5.992188 55.175781 5.992188 55.824219 C 5.992188 56.308594 6.453125 56.585938 6.910156 56.585938 C 7.496094 56.585938 7.996094 56.035156 7.996094 56.035156 L 7.648438 55.625 Z M 7.648438 55.621094 "/>
<path style=" stroke:none;fill-rule:nonzero;fill:rgb(100%,92.54902%,17.647059%);fill-opacity:1;" d="M 7.777344 42.472656 C 7.777344 41.257812 6.617188 40.632812 5.707031 40.632812 C 4.480469 40.632812 3.824219 41.320312 3.824219 42.226562 C 3.824219 42.738281 3.925781 43.0625 4.175781 43.546875 L 6.992188 49.050781 C 7.09375 49.28125 7.140625 49.53125 7.121094 49.78125 C 7.121094 50.273438 6.609375 50.675781 6.082031 50.683594 C 5.597656 50.699219 5.0625 50.261719 5.0625 49.765625 C 5.0625 49.15625 5.398438 48.886719 5.742188 48.886719 C 6.164062 48.886719 6.332031 49.050781 6.332031 49.332031 C 6.332031 49.523438 6.234375 49.609375 6.089844 49.609375 C 5.726562 49.609375 5.832031 49.152344 5.832031 49.152344 C 5.734375 49.167969 5.652344 49.226562 5.605469 49.308594 C 5.554688 49.386719 5.546875 49.484375 5.585938 49.570312 C 5.449219 49.601562 5.324219 49.671875 5.234375 49.769531 C 5.328125 49.859375 5.445312 49.925781 5.585938 49.949219 C 5.5 50.214844 5.617188 50.339844 5.859375 50.398438 C 5.816406 50.308594 5.804688 50.207031 5.828125 50.113281 C 6.210938 50.21875 6.800781 50.050781 6.800781 49.429688 C 6.800781 48.804688 6.34375 48.28125 5.484375 48.40625 C 5.6875 48.316406 5.789062 48.132812 5.8125 47.921875 C 5.65625 47.980469 5.484375 47.980469 5.484375 47.980469 C 5.585938 47.820312 5.726562 47.683594 5.71875 47.347656 C 5.558594 47.417969 5.40625 47.542969 5.207031 47.464844 C 5.527344 46.867188 5.132812 46.050781 4.125 45.859375 C 4.496094 46.265625 4.671875 46.699219 4.671875 47.136719 C 4.671875 48.546875 4.257812 48.78125 4.257812 49.765625 C 4.273438 50.226562 4.519531 50.65625 4.929688 50.914062 L 4.929688 50.898438 C 4.679688 50.945312 4.460938 51.09375 4.335938 51.300781 C 5.046875 51.484375 5.796875 51.476562 6.503906 51.28125 C 6.980469 51.21875 7.402344 50.953125 7.648438 50.5625 C 7.90625 50.007812 7.90625 49.378906 7.648438 48.828125 C 7.25 48.046875 5.375 44.292969 4.789062 43.117188 C 4.660156 42.863281 4.589844 42.601562 4.589844 42.3125 C 4.589844 41.59375 5.292969 41.339844 5.6875 41.339844 C 6.164062 41.339844 6.65625 41.683594 6.65625 42.109375 C 6.65625 42.378906 6.496094 42.546875 6.273438 42.546875 C 5.730469 42.546875 5.761719 42.113281 5.871094 41.839844 C 5.535156 41.980469 5.34375 42.234375 5.394531 42.496094 C 5.183594 42.53125 4.996094 42.632812 4.859375 42.785156 C 4.984375 42.941406 5.152344 43.0625 5.394531 43.066406 C 5.285156 43.480469 5.585938 43.65625 5.871094 43.753906 C 5.78125 43.453125 5.71875 43.097656 6.273438 43.097656 C 6.675781 43.097656 6.988281 43.039062 7.171875 42.785156 L 7.214844 44.40625 C 7.242188 44.890625 6.527344 44.886719 6.070312 44.734375 C 6.242188 45.292969 6.589844 45.601562 7.40625 45.523438 C 7.152344 45.613281 6.988281 45.851562 7 46.109375 C 7 46.566406 7.394531 47.070312 7.648438 47.21875 L 7.777344 42.480469 Z M 7.777344 42.472656 "/>
<path style=" stroke:none;fill-rule:nonzero;fill:rgb(100%,92.54902%,17.647059%);fill-opacity:1;" d="M 7.777344 38.824219 C 7.777344 40.042969 6.617188 40.667969 5.707031 40.667969 C 4.480469 40.667969 3.824219 39.976562 3.824219 39.070312 C 3.824219 38.5625 3.925781 38.238281 4.175781 37.753906 L 6.992188 32.25 C 7.09375 32.019531 7.140625 31.769531 7.121094 31.519531 C 7.121094 31.027344 6.609375 30.625 6.082031 30.617188 C 5.597656 30.601562 5.0625 31.039062 5.0625 31.535156 C 5.0625 32.140625 5.398438 32.410156 5.742188 32.410156 C 6.164062 32.410156 6.332031 32.25 6.332031 31.96875 C 6.332031 31.777344 6.234375 31.691406 6.089844 31.691406 C 5.726562 31.691406 5.832031 32.148438 5.832031 32.148438 C 5.734375 32.132812 5.652344 32.074219 5.605469 31.992188 C 5.554688 31.910156 5.546875 31.816406 5.585938 31.726562 C 5.449219 31.699219 5.324219 31.628906 5.234375 31.53125 C 5.328125 31.441406 5.445312 31.375 5.585938 31.351562 C 5.5 31.085938 5.617188 30.960938 5.859375 30.898438 C 5.816406 30.988281 5.804688 31.089844 5.828125 31.1875 C 6.210938 31.078125 6.800781 31.246094 6.800781 31.871094 C 6.800781 32.496094 6.34375 33.019531 5.484375 32.890625 C 5.6875 32.980469 5.789062 33.167969 5.8125 33.378906 C 5.65625 33.316406 5.484375 33.316406 5.484375 33.316406 C 5.585938 33.480469 5.726562 33.617188 5.71875 33.953125 C 5.558594 33.882812 5.40625 33.757812 5.207031 33.835938 C 5.527344 34.433594 5.132812 35.25 4.125 35.441406 C 4.496094 35.035156 4.671875 34.601562 4.671875 34.164062 C 4.671875 32.753906 4.257812 32.519531 4.257812 31.535156 C 4.273438 31.074219 4.519531 30.644531 4.929688 30.382812 L 4.929688 30.402344 C 4.679688 30.355469 4.460938 30.207031 4.335938 30 C 5.046875 29.816406 5.796875 29.820312 6.503906 30.019531 C 6.980469 30.082031 7.402344 30.347656 7.648438 30.738281 C 7.90625 31.289062 7.90625 31.917969 7.648438 32.472656 C 7.25 33.253906 5.375 37.007812 4.789062 38.183594 C 4.660156 38.4375 4.589844 38.699219 4.589844 38.988281 C 4.589844 39.707031 5.292969 39.960938 5.6875 39.960938 C 6.164062 39.960938 6.65625 39.617188 6.65625 39.191406 C 6.65625 38.921875 6.496094 38.753906 6.273438 38.753906 C 5.730469 38.753906 5.761719 39.1875 5.871094 39.460938 C 5.535156 39.316406 5.34375 39.066406 5.394531 38.800781 C 5.183594 38.769531 4.996094 38.667969 4.859375 38.515625 C 4.984375 38.359375 5.152344 38.238281 5.394531 38.230469 C 5.285156 37.816406 5.585938 37.644531 5.871094 37.546875 C 5.78125 37.847656 5.71875 38.203125 6.273438 38.203125 C 6.675781 38.203125 6.988281 38.261719 7.171875 38.515625 L 7.214844 36.894531 C 7.242188 36.40625 6.527344 36.414062 6.070312 36.5625 C 6.242188 36.007812 6.589844 35.699219 7.40625 35.777344 C 7.152344 35.683594 6.988281 35.449219 7 35.191406 C 7 34.734375 7.394531 34.230469 7.648438 34.078125 L 7.777344 38.820312 Z M 7.777344 38.824219 "/>
<path style=" stroke:none;fill-rule:nonzero;fill:rgb(100%,92.54902%,17.647059%);fill-opacity:1;" d="M 7.648438 55.621094 C 7.648438 55.621094 8.261719 56.113281 8.472656 55.867188 C 8.804688 55.476562 7.441406 53.527344 7.441406 52.84375 C 7.441406 51.714844 8.242188 51.40625 9.226562 51.253906 C 9.886719 51.144531 10.964844 51.292969 10.964844 51.292969 C 10.761719 51.550781 10.628906 51.628906 10.289062 51.648438 C 10.671875 51.828125 11.054688 52.234375 11.054688 52.867188 C 11.054688 53.832031 10.632812 54.234375 10.632812 55.324219 C 10.632812 55.921875 11.15625 56.699219 11.15625 56.699219 C 10.226562 56.609375 9.765625 55.800781 10.027344 55.152344 C 9.882812 55.125 9.730469 55.167969 9.625 55.265625 C 9.5625 55.085938 9.664062 54.875 9.8125 54.695312 C 9.695312 54.636719 9.605469 54.671875 9.429688 54.707031 C 9.441406 54.527344 9.554688 54.324219 9.847656 54.136719 C 9.007812 54.34375 8.496094 53.796875 8.496094 53.21875 C 8.496094 52.78125 8.816406 52.46875 9.136719 52.46875 C 9.238281 52.46875 9.390625 52.511719 9.472656 52.570312 C 9.535156 52.453125 9.5 52.289062 9.441406 52.171875 C 9.671875 52.230469 9.824219 52.363281 9.714844 52.632812 C 9.894531 52.644531 10.035156 52.703125 10.128906 52.8125 C 10.035156 52.933594 9.886719 52.992188 9.714844 52.992188 C 9.84375 53.242188 9.695312 53.382812 9.484375 53.496094 C 9.484375 53.496094 9.621094 52.992188 9.28125 52.992188 C 9.128906 52.992188 8.988281 53.035156 8.988281 53.25 C 8.988281 53.4375 9.160156 53.695312 9.5625 53.675781 C 9.957031 53.65625 10.28125 53.417969 10.28125 52.816406 C 10.28125 52.265625 9.804688 51.988281 9.179688 51.976562 C 8.617188 51.953125 8.191406 52.242188 8.191406 52.789062 C 8.191406 53.519531 9.308594 55.175781 9.308594 55.824219 C 9.308594 56.308594 8.847656 56.585938 8.390625 56.585938 C 7.804688 56.585938 7.304688 56.035156 7.304688 56.035156 L 7.648438 55.625 Z M 7.648438 55.621094 "/>
<path style=" stroke:none;fill-rule:nonzero;fill:rgb(100%,92.54902%,17.647059%);fill-opacity:1;" d="M 7.523438 42.472656 C 7.523438 41.257812 8.683594 40.632812 9.59375 40.632812 C 10.820312 40.632812 11.476562 41.320312 11.476562 42.226562 C 11.476562 42.738281 11.371094 43.0625 11.125 43.546875 L 8.304688 49.050781 C 8.203125 49.28125 8.160156 49.53125 8.179688 49.78125 C 8.179688 50.273438 8.6875 50.675781 9.21875 50.683594 C 9.703125 50.699219 10.238281 50.261719 10.238281 49.765625 C 10.238281 49.15625 9.898438 48.886719 9.554688 48.886719 C 9.136719 48.886719 8.96875 49.050781 8.96875 49.332031 C 8.96875 49.523438 9.066406 49.609375 9.210938 49.609375 C 9.574219 49.609375 9.46875 49.152344 9.46875 49.152344 C 9.5625 49.167969 9.648438 49.226562 9.695312 49.308594 C 9.746094 49.386719 9.75 49.484375 9.714844 49.570312 C 9.851562 49.601562 9.976562 49.671875 10.066406 49.769531 C 9.96875 49.859375 9.855469 49.925781 9.714844 49.949219 C 9.796875 50.214844 9.683594 50.339844 9.441406 50.398438 C 9.484375 50.308594 9.496094 50.207031 9.472656 50.113281 C 9.089844 50.21875 8.496094 50.050781 8.496094 49.429688 C 8.496094 48.804688 8.957031 48.28125 9.816406 48.40625 C 9.613281 48.316406 9.511719 48.132812 9.484375 47.921875 C 9.644531 47.980469 9.816406 47.980469 9.816406 47.980469 C 9.714844 47.820312 9.574219 47.683594 9.582031 47.347656 C 9.742188 47.417969 9.894531 47.542969 10.089844 47.464844 C 9.773438 46.867188 10.167969 46.050781 11.175781 45.859375 C 10.804688 46.265625 10.628906 46.699219 10.628906 47.136719 C 10.628906 48.546875 11.042969 48.78125 11.042969 49.765625 C 11.027344 50.226562 10.777344 50.65625 10.371094 50.914062 L 10.371094 50.898438 C 10.621094 50.945312 10.835938 51.09375 10.964844 51.300781 C 10.253906 51.484375 9.503906 51.476562 8.796875 51.28125 C 8.320312 51.21875 7.898438 50.953125 7.648438 50.5625 C 7.394531 50.007812 7.394531 49.378906 7.648438 48.828125 C 8.050781 48.046875 9.925781 44.292969 10.511719 43.117188 C 10.640625 42.863281 10.710938 42.601562 10.710938 42.3125 C 10.710938 41.59375 10.007812 41.339844 9.613281 41.339844 C 9.136719 41.339844 8.644531 41.683594 8.644531 42.109375 C 8.644531 42.378906 8.804688 42.546875 9.027344 42.546875 C 9.570312 42.546875 9.535156 42.113281 9.429688 41.839844 C 9.765625 41.980469 9.957031 42.234375 9.90625 42.496094 C 10.117188 42.53125 10.304688 42.632812 10.441406 42.785156 C 10.316406 42.941406 10.148438 43.0625 9.90625 43.066406 C 10.015625 43.480469 9.714844 43.65625 9.429688 43.753906 C 9.519531 43.453125 9.582031 43.097656 9.027344 43.097656 C 8.625 43.097656 8.3125 43.039062 8.128906 42.785156 L 8.082031 44.40625 C 8.058594 44.890625 8.773438 44.886719 9.230469 44.734375 C 9.058594 45.292969 8.707031 45.601562 7.890625 45.523438 C 8.148438 45.613281 8.3125 45.851562 8.300781 46.109375 C 8.300781 46.566406 7.90625 47.070312 7.648438 47.21875 L 7.523438 42.480469 Z M 7.523438 42.472656 "/>
<path style=" stroke:none;fill-rule:nonzero;fill:rgb(100%,92.54902%,17.647059%);fill-opacity:1;" d="M 7.523438 38.824219 C 7.523438 40.042969 8.683594 40.667969 9.59375 40.667969 C 10.820312 40.667969 11.476562 39.976562 11.476562 39.070312 C 11.476562 38.5625 11.371094 38.238281 11.125 37.753906 L 8.304688 32.25 C 8.203125 32.019531 8.160156 31.769531 8.179688 31.519531 C 8.179688 31.027344 8.6875 30.625 9.21875 30.617188 C 9.703125 30.601562 10.238281 31.039062 10.238281 31.535156 C 10.238281 32.140625 9.898438 32.410156 9.554688 32.410156 C 9.136719 32.410156 8.96875 32.25 8.96875 31.96875 C 8.96875 31.777344 9.066406 31.691406 9.210938 31.691406 C 9.574219 31.691406 9.46875 32.148438 9.46875 32.148438 C 9.5625 32.132812 9.648438 32.074219 9.695312 31.992188 C 9.746094 31.910156 9.75 31.816406 9.714844 31.726562 C 9.851562 31.699219 9.976562 31.628906 10.066406 31.53125 C 9.96875 31.441406 9.855469 31.375 9.714844 31.351562 C 9.796875 31.085938 9.683594 30.960938 9.441406 30.898438 C 9.484375 30.988281 9.496094 31.089844 9.472656 31.1875 C 9.089844 31.078125 8.496094 31.246094 8.496094 31.871094 C 8.496094 32.496094 8.957031 33.019531 9.816406 32.890625 C 9.613281 32.980469 9.511719 33.167969 9.484375 33.378906 C 9.644531 33.316406 9.816406 33.316406 9.816406 33.316406 C 9.714844 33.480469 9.574219 33.617188 9.582031 33.953125 C 9.742188 33.882812 9.894531 33.757812 10.089844 33.835938 C 9.773438 34.433594 10.167969 35.25 11.175781 35.441406 C 10.804688 35.035156 10.628906 34.601562 10.628906 34.164062 C 10.628906 32.753906 11.042969 32.519531 11.042969 31.535156 C 11.027344 31.074219 10.777344 30.644531 10.371094 30.382812 L 10.371094 30.402344 C 10.621094 30.355469 10.835938 30.207031 10.964844 30 C 10.253906 29.816406 9.503906 29.820312 8.796875 30.019531 C 8.320312 30.082031 7.898438 30.347656 7.648438 30.738281 C 7.394531 31.289062 7.394531 31.917969 7.648438 32.472656 C 8.050781 33.253906 9.925781 37.007812 10.511719 38.183594 C 10.640625 38.4375 10.710938 38.699219 10.710938 38.988281 C 10.710938 39.707031 10.007812 39.960938 9.613281 39.960938 C 9.136719 39.960938 8.644531 39.617188 8.644531 39.191406 C 8.644531 38.921875 8.804688 38.753906 9.027344 38.753906 C 9.570312 38.753906 9.535156 39.1875 9.429688 39.460938 C 9.765625 39.316406 9.957031 39.066406 9.90625 38.800781 C 10.117188 38.769531 10.304688 38.667969 10.441406 38.515625 C 10.316406 38.359375 10.148438 38.238281 9.90625 38.230469 C 10.015625 37.816406 9.714844 37.644531 9.429688 37.546875 C 9.519531 37.847656 9.582031 38.203125 9.027344 38.203125 C 8.625 38.203125 8.3125 38.261719 8.128906 38.515625 L 8.082031 36.894531 C 8.058594 36.40625 8.773438 36.414062 9.230469 36.5625 C 9.058594 36.007812 8.707031 35.699219 7.890625 35.777344 C 8.148438 35.683594 8.3125 35.449219 8.300781 35.191406 C 8.300781 34.734375 7.90625 34.230469 7.648438 34.078125 L 7.523438 38.820312 Z M 7.523438 38.824219 "/>
</g>
</svg>
