<?xml version="1.0" encoding="UTF-8"?>
<svg xmlns="http://www.w3.org/2000/svg" xmlns:xlink="http://www.w3.org/1999/xlink" width="85px" height="60px" viewBox="0 0 85 60" version="1.1">
<g id="surface1">
<rect x="0" y="0" width="85" height="60" style="fill:rgb(89.019608%,3.921569%,9.019608%);fill-opacity:1;stroke:none;"/>
<path style=" stroke:none;fill-rule:evenodd;fill:rgb(100%,100%,100%);fill-opacity:1;" d="M 54.054688 30.9375 C 54.054688 39.210938 46.804688 45.925781 37.851562 45.925781 C 28.898438 45.925781 21.648438 39.210938 21.648438 30.925781 C 21.648438 22.636719 28.898438 15.949219 37.851562 15.949219 C 46.804688 15.949219 54.054688 22.664062 54.054688 30.9375 Z M 54.054688 30.9375 "/>
<path style=" stroke:none;fill-rule:evenodd;fill:rgb(89.019608%,3.921569%,9.019608%);fill-opacity:1;" d="M 54.851562 30.9375 C 54.851562 37.5625 49.0625 42.925781 41.902344 42.925781 C 34.742188 42.925781 28.941406 37.550781 28.941406 30.925781 C 28.941406 24.300781 34.742188 18.949219 41.902344 18.949219 C 49.0625 18.949219 54.863281 24.3125 54.863281 30.9375 Z M 54.851562 30.9375 "/>
<path style=" stroke:none;fill-rule:evenodd;fill:rgb(100%,100%,100%);fill-opacity:1;" d="M 57.203125 23.9375 L 57.070312 29.476562 L 51.585938 30.875 L 57.003906 32.6875 L 56.871094 37.773438 L 60.390625 33.800781 L 65.730469 35.550781 L 62.648438 31.289062 L 66.40625 27.050781 L 60.628906 28.550781 L 57.203125 23.925781 Z M 57.203125 23.9375 "/>
</g>
</svg>
