<?xml version="1.0" encoding="UTF-8"?>
<svg xmlns="http://www.w3.org/2000/svg" xmlns:xlink="http://www.w3.org/1999/xlink" width="85px" height="60px" viewBox="0 0 85 60" version="1.1">
<g id="surface1">
<path style=" stroke:none;fill-rule:nonzero;fill:rgb(11.764706%,70.980392%,22.745098%);fill-opacity:1;" d="M 0 40 L 85 40 L 85 60 L 0 60 Z M 0 40 "/>
<path style=" stroke:none;fill-rule:nonzero;fill:rgb(0%,60%,70.980392%);fill-opacity:1;" d="M 0 0 L 85 0 L 85 20 L 0 20 Z M 0 0 "/>
<path style=" stroke:none;fill-rule:nonzero;fill:rgb(80.784314%,6.666667%,14.901961%);fill-opacity:1;" d="M 0 19.199219 L 85 19.199219 L 85 40.800781 L 0 40.800781 Z M 0 19.199219 "/>
<path style=" stroke:none;fill-rule:nonzero;fill:rgb(100%,100%,100%);fill-opacity:1;" d="M 0 20.398438 L 85 20.398438 L 85 39.601562 L 0 39.601562 Z M 0 20.398438 "/>
<path style=" stroke:none;fill-rule:nonzero;fill:rgb(100%,100%,100%);fill-opacity:1;" d="M 25.5 9.601562 C 25.5 13.578125 22.074219 16.800781 17.851562 16.800781 C 13.625 16.800781 10.199219 13.578125 10.199219 9.601562 C 10.199219 5.625 13.625 2.398438 17.851562 2.398438 C 22.074219 2.398438 25.5 5.625 25.5 9.601562 Z M 25.5 9.601562 "/>
<path style=" stroke:none;fill-rule:nonzero;fill:rgb(0%,60%,70.980392%);fill-opacity:1;" d="M 28.050781 9.601562 C 28.050781 13.578125 24.625 16.800781 20.398438 16.800781 C 16.175781 16.800781 12.75 13.578125 12.75 9.601562 C 12.75 5.625 16.175781 2.398438 20.398438 2.398438 C 24.625 2.398438 28.050781 5.625 28.050781 9.601562 Z M 28.050781 9.601562 "/>
<path style=" stroke:none;fill-rule:nonzero;fill:rgb(100%,100%,100%);fill-opacity:1;" d="M 34.675781 13.921875 L 34.191406 15.289062 L 34.933594 15.53125 "/>
<path style=" stroke:none;fill-rule:nonzero;fill:rgb(100%,100%,100%);fill-opacity:1;" d="M 34.675781 13.921875 L 35.160156 15.289062 L 34.421875 15.53125 "/>
<path style=" stroke:none;fill-rule:nonzero;fill:rgb(100%,100%,100%);fill-opacity:1;" d="M 36.132812 14.917969 L 34.601562 14.90625 L 34.585938 15.644531 "/>
<path style=" stroke:none;fill-rule:nonzero;fill:rgb(100%,100%,100%);fill-opacity:1;" d="M 36.132812 14.917969 L 34.898438 15.773438 L 34.429688 15.1875 "/>
<path style=" stroke:none;fill-rule:nonzero;fill:rgb(100%,100%,100%);fill-opacity:1;" d="M 33.222656 14.917969 L 34.453125 15.773438 L 34.925781 15.1875 "/>
<path style=" stroke:none;fill-rule:nonzero;fill:rgb(100%,100%,100%);fill-opacity:1;" d="M 33.222656 14.917969 L 34.753906 14.90625 L 34.769531 15.644531 "/>
<path style=" stroke:none;fill-rule:nonzero;fill:rgb(100%,100%,100%);fill-opacity:1;" d="M 35.578125 16.527344 L 35.113281 15.152344 L 34.367188 15.367188 "/>
<path style=" stroke:none;fill-rule:nonzero;fill:rgb(100%,100%,100%);fill-opacity:1;" d="M 35.578125 16.527344 L 34.332031 15.6875 L 34.777344 15.085938 "/>
<path style=" stroke:none;fill-rule:nonzero;fill:rgb(100%,100%,100%);fill-opacity:1;" d="M 33.777344 16.527344 L 35.023438 15.6875 L 34.574219 15.085938 "/>
<path style=" stroke:none;fill-rule:nonzero;fill:rgb(100%,100%,100%);fill-opacity:1;" d="M 33.777344 16.527344 L 34.242188 15.152344 L 34.988281 15.367188 "/>
<path style=" stroke:none;fill-rule:nonzero;fill:rgb(100%,100%,100%);fill-opacity:1;" d="M 34.675781 8.164062 L 34.191406 9.53125 L 34.933594 9.769531 "/>
<path style=" stroke:none;fill-rule:nonzero;fill:rgb(100%,100%,100%);fill-opacity:1;" d="M 34.675781 8.164062 L 35.160156 9.53125 L 34.421875 9.769531 "/>
<path style=" stroke:none;fill-rule:nonzero;fill:rgb(100%,100%,100%);fill-opacity:1;" d="M 36.132812 9.15625 L 34.601562 9.148438 L 34.585938 9.882812 "/>
<path style=" stroke:none;fill-rule:nonzero;fill:rgb(100%,100%,100%);fill-opacity:1;" d="M 36.132812 9.15625 L 34.898438 10.015625 L 34.429688 9.425781 "/>
<path style=" stroke:none;fill-rule:nonzero;fill:rgb(100%,100%,100%);fill-opacity:1;" d="M 33.222656 9.15625 L 34.453125 10.015625 L 34.925781 9.425781 "/>
<path style=" stroke:none;fill-rule:nonzero;fill:rgb(100%,100%,100%);fill-opacity:1;" d="M 33.222656 9.15625 L 34.753906 9.148438 L 34.769531 9.882812 "/>
<path style=" stroke:none;fill-rule:nonzero;fill:rgb(100%,100%,100%);fill-opacity:1;" d="M 35.578125 10.765625 L 35.113281 9.394531 L 34.367188 9.609375 "/>
<path style=" stroke:none;fill-rule:nonzero;fill:rgb(100%,100%,100%);fill-opacity:1;" d="M 35.578125 10.765625 L 34.332031 9.929688 L 34.777344 9.324219 "/>
<path style=" stroke:none;fill-rule:nonzero;fill:rgb(100%,100%,100%);fill-opacity:1;" d="M 33.777344 10.765625 L 35.023438 9.929688 L 34.574219 9.324219 "/>
<path style=" stroke:none;fill-rule:nonzero;fill:rgb(100%,100%,100%);fill-opacity:1;" d="M 33.777344 10.765625 L 34.242188 9.394531 L 34.988281 9.609375 "/>
<path style=" stroke:none;fill-rule:nonzero;fill:rgb(100%,100%,100%);fill-opacity:1;" d="M 34.675781 2.402344 L 34.191406 3.769531 L 34.933594 4.011719 "/>
<path style=" stroke:none;fill-rule:nonzero;fill:rgb(100%,100%,100%);fill-opacity:1;" d="M 34.675781 2.402344 L 35.160156 3.769531 L 34.421875 4.011719 "/>
<path style=" stroke:none;fill-rule:nonzero;fill:rgb(100%,100%,100%);fill-opacity:1;" d="M 36.132812 3.398438 L 34.601562 3.386719 L 34.585938 4.121094 "/>
<path style=" stroke:none;fill-rule:nonzero;fill:rgb(100%,100%,100%);fill-opacity:1;" d="M 36.132812 3.398438 L 34.898438 4.253906 L 34.429688 3.667969 "/>
<path style=" stroke:none;fill-rule:nonzero;fill:rgb(100%,100%,100%);fill-opacity:1;" d="M 33.222656 3.398438 L 34.453125 4.253906 L 34.925781 3.667969 "/>
<path style=" stroke:none;fill-rule:nonzero;fill:rgb(100%,100%,100%);fill-opacity:1;" d="M 33.222656 3.398438 L 34.753906 3.386719 L 34.769531 4.121094 "/>
<path style=" stroke:none;fill-rule:nonzero;fill:rgb(100%,100%,100%);fill-opacity:1;" d="M 35.578125 5.007812 L 35.113281 3.632812 L 34.367188 3.847656 "/>
<path style=" stroke:none;fill-rule:nonzero;fill:rgb(100%,100%,100%);fill-opacity:1;" d="M 35.578125 5.007812 L 34.332031 4.167969 L 34.777344 3.566406 "/>
<path style=" stroke:none;fill-rule:nonzero;fill:rgb(100%,100%,100%);fill-opacity:1;" d="M 33.777344 5.007812 L 35.023438 4.167969 L 34.574219 3.566406 "/>
<path style=" stroke:none;fill-rule:nonzero;fill:rgb(100%,100%,100%);fill-opacity:1;" d="M 33.777344 5.007812 L 34.242188 3.632812 L 34.988281 3.847656 "/>
<path style=" stroke:none;fill-rule:nonzero;fill:rgb(100%,100%,100%);fill-opacity:1;" d="M 40.796875 13.921875 L 40.3125 15.289062 L 41.050781 15.53125 "/>
<path style=" stroke:none;fill-rule:nonzero;fill:rgb(100%,100%,100%);fill-opacity:1;" d="M 40.796875 13.921875 L 41.28125 15.289062 L 40.542969 15.53125 "/>
<path style=" stroke:none;fill-rule:nonzero;fill:rgb(100%,100%,100%);fill-opacity:1;" d="M 42.253906 14.917969 L 40.71875 14.90625 L 40.707031 15.644531 "/>
<path style=" stroke:none;fill-rule:nonzero;fill:rgb(100%,100%,100%);fill-opacity:1;" d="M 42.253906 14.917969 L 41.019531 15.773438 L 40.546875 15.1875 "/>
<path style=" stroke:none;fill-rule:nonzero;fill:rgb(100%,100%,100%);fill-opacity:1;" d="M 39.34375 14.917969 L 40.574219 15.773438 L 41.046875 15.1875 "/>
<path style=" stroke:none;fill-rule:nonzero;fill:rgb(100%,100%,100%);fill-opacity:1;" d="M 39.34375 14.917969 L 40.875 14.90625 L 40.886719 15.644531 "/>
<path style=" stroke:none;fill-rule:nonzero;fill:rgb(100%,100%,100%);fill-opacity:1;" d="M 41.695312 16.527344 L 41.234375 15.152344 L 40.484375 15.367188 "/>
<path style=" stroke:none;fill-rule:nonzero;fill:rgb(100%,100%,100%);fill-opacity:1;" d="M 41.695312 16.527344 L 40.449219 15.6875 L 40.898438 15.085938 "/>
<path style=" stroke:none;fill-rule:nonzero;fill:rgb(100%,100%,100%);fill-opacity:1;" d="M 39.898438 16.527344 L 41.144531 15.6875 L 40.695312 15.085938 "/>
<path style=" stroke:none;fill-rule:nonzero;fill:rgb(100%,100%,100%);fill-opacity:1;" d="M 39.898438 16.527344 L 40.359375 15.152344 L 41.109375 15.367188 "/>
<path style=" stroke:none;fill-rule:nonzero;fill:rgb(100%,100%,100%);fill-opacity:1;" d="M 40.796875 8.164062 L 40.3125 9.53125 L 41.050781 9.769531 "/>
<path style=" stroke:none;fill-rule:nonzero;fill:rgb(100%,100%,100%);fill-opacity:1;" d="M 40.796875 8.164062 L 41.28125 9.53125 L 40.542969 9.769531 "/>
<path style=" stroke:none;fill-rule:nonzero;fill:rgb(100%,100%,100%);fill-opacity:1;" d="M 42.253906 9.15625 L 40.71875 9.148438 L 40.707031 9.882812 "/>
<path style=" stroke:none;fill-rule:nonzero;fill:rgb(100%,100%,100%);fill-opacity:1;" d="M 42.253906 9.15625 L 41.019531 10.015625 L 40.546875 9.425781 "/>
<path style=" stroke:none;fill-rule:nonzero;fill:rgb(100%,100%,100%);fill-opacity:1;" d="M 39.34375 9.15625 L 40.574219 10.015625 L 41.046875 9.425781 "/>
<path style=" stroke:none;fill-rule:nonzero;fill:rgb(100%,100%,100%);fill-opacity:1;" d="M 39.34375 9.15625 L 40.875 9.148438 L 40.886719 9.882812 "/>
<path style=" stroke:none;fill-rule:nonzero;fill:rgb(100%,100%,100%);fill-opacity:1;" d="M 41.695312 10.765625 L 41.234375 9.394531 L 40.484375 9.609375 "/>
<path style=" stroke:none;fill-rule:nonzero;fill:rgb(100%,100%,100%);fill-opacity:1;" d="M 41.695312 10.765625 L 40.449219 9.929688 L 40.898438 9.324219 "/>
<path style=" stroke:none;fill-rule:nonzero;fill:rgb(100%,100%,100%);fill-opacity:1;" d="M 39.898438 10.765625 L 41.144531 9.929688 L 40.695312 9.324219 "/>
<path style=" stroke:none;fill-rule:nonzero;fill:rgb(100%,100%,100%);fill-opacity:1;" d="M 39.898438 10.765625 L 40.359375 9.394531 L 41.109375 9.609375 "/>
<path style=" stroke:none;fill-rule:nonzero;fill:rgb(100%,100%,100%);fill-opacity:1;" d="M 40.796875 2.402344 L 40.3125 3.769531 L 41.050781 4.011719 "/>
<path style=" stroke:none;fill-rule:nonzero;fill:rgb(100%,100%,100%);fill-opacity:1;" d="M 40.796875 2.402344 L 41.28125 3.769531 L 40.542969 4.011719 "/>
<path style=" stroke:none;fill-rule:nonzero;fill:rgb(100%,100%,100%);fill-opacity:1;" d="M 42.253906 3.398438 L 40.71875 3.386719 L 40.707031 4.121094 "/>
<path style=" stroke:none;fill-rule:nonzero;fill:rgb(100%,100%,100%);fill-opacity:1;" d="M 42.253906 3.398438 L 41.019531 4.253906 L 40.546875 3.667969 "/>
<path style=" stroke:none;fill-rule:nonzero;fill:rgb(100%,100%,100%);fill-opacity:1;" d="M 39.34375 3.398438 L 40.574219 4.253906 L 41.046875 3.667969 "/>
<path style=" stroke:none;fill-rule:nonzero;fill:rgb(100%,100%,100%);fill-opacity:1;" d="M 39.34375 3.398438 L 40.875 3.386719 L 40.886719 4.121094 "/>
<path style=" stroke:none;fill-rule:nonzero;fill:rgb(100%,100%,100%);fill-opacity:1;" d="M 41.695312 5.007812 L 41.234375 3.632812 L 40.484375 3.847656 "/>
<path style=" stroke:none;fill-rule:nonzero;fill:rgb(100%,100%,100%);fill-opacity:1;" d="M 41.695312 5.007812 L 40.449219 4.167969 L 40.898438 3.566406 "/>
<path style=" stroke:none;fill-rule:nonzero;fill:rgb(100%,100%,100%);fill-opacity:1;" d="M 39.898438 5.007812 L 41.144531 4.167969 L 40.695312 3.566406 "/>
<path style=" stroke:none;fill-rule:nonzero;fill:rgb(100%,100%,100%);fill-opacity:1;" d="M 39.898438 5.007812 L 40.359375 3.632812 L 41.109375 3.847656 "/>
<path style=" stroke:none;fill-rule:nonzero;fill:rgb(100%,100%,100%);fill-opacity:1;" d="M 46.917969 13.921875 L 46.433594 15.289062 L 47.171875 15.53125 "/>
<path style=" stroke:none;fill-rule:nonzero;fill:rgb(100%,100%,100%);fill-opacity:1;" d="M 46.917969 13.921875 L 47.402344 15.289062 L 46.664062 15.53125 "/>
<path style=" stroke:none;fill-rule:nonzero;fill:rgb(100%,100%,100%);fill-opacity:1;" d="M 48.371094 14.917969 L 46.839844 14.90625 L 46.828125 15.644531 "/>
<path style=" stroke:none;fill-rule:nonzero;fill:rgb(100%,100%,100%);fill-opacity:1;" d="M 48.371094 14.917969 L 47.140625 15.773438 L 46.667969 15.1875 "/>
<path style=" stroke:none;fill-rule:nonzero;fill:rgb(100%,100%,100%);fill-opacity:1;" d="M 45.460938 14.917969 L 46.695312 15.773438 L 47.164062 15.1875 "/>
<path style=" stroke:none;fill-rule:nonzero;fill:rgb(100%,100%,100%);fill-opacity:1;" d="M 45.460938 14.917969 L 46.996094 14.90625 L 47.007812 15.644531 "/>
<path style=" stroke:none;fill-rule:nonzero;fill:rgb(100%,100%,100%);fill-opacity:1;" d="M 47.816406 16.527344 L 47.355469 15.152344 L 46.605469 15.367188 "/>
<path style=" stroke:none;fill-rule:nonzero;fill:rgb(100%,100%,100%);fill-opacity:1;" d="M 47.816406 16.527344 L 46.570312 15.6875 L 47.019531 15.085938 "/>
<path style=" stroke:none;fill-rule:nonzero;fill:rgb(100%,100%,100%);fill-opacity:1;" d="M 46.019531 16.527344 L 47.265625 15.6875 L 46.816406 15.085938 "/>
<path style=" stroke:none;fill-rule:nonzero;fill:rgb(100%,100%,100%);fill-opacity:1;" d="M 46.019531 16.527344 L 46.480469 15.152344 L 47.230469 15.367188 "/>
<path style=" stroke:none;fill-rule:nonzero;fill:rgb(100%,100%,100%);fill-opacity:1;" d="M 46.917969 8.164062 L 46.433594 9.53125 L 47.171875 9.769531 "/>
<path style=" stroke:none;fill-rule:nonzero;fill:rgb(100%,100%,100%);fill-opacity:1;" d="M 46.917969 8.164062 L 47.402344 9.53125 L 46.664062 9.769531 "/>
<path style=" stroke:none;fill-rule:nonzero;fill:rgb(100%,100%,100%);fill-opacity:1;" d="M 48.371094 9.15625 L 46.839844 9.148438 L 46.828125 9.882812 "/>
<path style=" stroke:none;fill-rule:nonzero;fill:rgb(100%,100%,100%);fill-opacity:1;" d="M 48.371094 9.15625 L 47.140625 10.015625 L 46.667969 9.425781 "/>
<path style=" stroke:none;fill-rule:nonzero;fill:rgb(100%,100%,100%);fill-opacity:1;" d="M 45.460938 9.15625 L 46.695312 10.015625 L 47.164062 9.425781 "/>
<path style=" stroke:none;fill-rule:nonzero;fill:rgb(100%,100%,100%);fill-opacity:1;" d="M 45.460938 9.15625 L 46.996094 9.148438 L 47.007812 9.882812 "/>
<path style=" stroke:none;fill-rule:nonzero;fill:rgb(100%,100%,100%);fill-opacity:1;" d="M 47.816406 10.765625 L 47.355469 9.394531 L 46.605469 9.609375 "/>
<path style=" stroke:none;fill-rule:nonzero;fill:rgb(100%,100%,100%);fill-opacity:1;" d="M 47.816406 10.765625 L 46.570312 9.929688 L 47.019531 9.324219 "/>
<path style=" stroke:none;fill-rule:nonzero;fill:rgb(100%,100%,100%);fill-opacity:1;" d="M 46.019531 10.765625 L 47.265625 9.929688 L 46.816406 9.324219 "/>
<path style=" stroke:none;fill-rule:nonzero;fill:rgb(100%,100%,100%);fill-opacity:1;" d="M 46.019531 10.765625 L 46.480469 9.394531 L 47.230469 9.609375 "/>
<path style=" stroke:none;fill-rule:nonzero;fill:rgb(100%,100%,100%);fill-opacity:1;" d="M 46.917969 2.402344 L 46.433594 3.769531 L 47.171875 4.011719 "/>
<path style=" stroke:none;fill-rule:nonzero;fill:rgb(100%,100%,100%);fill-opacity:1;" d="M 46.917969 2.402344 L 47.402344 3.769531 L 46.664062 4.011719 "/>
<path style=" stroke:none;fill-rule:nonzero;fill:rgb(100%,100%,100%);fill-opacity:1;" d="M 48.371094 3.398438 L 46.839844 3.386719 L 46.828125 4.121094 "/>
<path style=" stroke:none;fill-rule:nonzero;fill:rgb(100%,100%,100%);fill-opacity:1;" d="M 48.371094 3.398438 L 47.140625 4.253906 L 46.667969 3.667969 "/>
<path style=" stroke:none;fill-rule:nonzero;fill:rgb(100%,100%,100%);fill-opacity:1;" d="M 45.460938 3.398438 L 46.695312 4.253906 L 47.164062 3.667969 "/>
<path style=" stroke:none;fill-rule:nonzero;fill:rgb(100%,100%,100%);fill-opacity:1;" d="M 45.460938 3.398438 L 46.996094 3.386719 L 47.007812 4.121094 "/>
<path style=" stroke:none;fill-rule:nonzero;fill:rgb(100%,100%,100%);fill-opacity:1;" d="M 47.816406 5.007812 L 47.355469 3.632812 L 46.605469 3.847656 "/>
<path style=" stroke:none;fill-rule:nonzero;fill:rgb(100%,100%,100%);fill-opacity:1;" d="M 47.816406 5.007812 L 46.570312 4.167969 L 47.019531 3.566406 "/>
<path style=" stroke:none;fill-rule:nonzero;fill:rgb(100%,100%,100%);fill-opacity:1;" d="M 46.019531 5.007812 L 47.265625 4.167969 L 46.816406 3.566406 "/>
<path style=" stroke:none;fill-rule:nonzero;fill:rgb(100%,100%,100%);fill-opacity:1;" d="M 46.019531 5.007812 L 46.480469 3.632812 L 47.230469 3.847656 "/>
<path style=" stroke:none;fill-rule:nonzero;fill:rgb(100%,100%,100%);fill-opacity:1;" d="M 22.4375 13.921875 L 21.953125 15.289062 L 22.691406 15.53125 "/>
<path style=" stroke:none;fill-rule:nonzero;fill:rgb(100%,100%,100%);fill-opacity:1;" d="M 22.4375 13.921875 L 22.921875 15.289062 L 22.183594 15.53125 "/>
<path style=" stroke:none;fill-rule:nonzero;fill:rgb(100%,100%,100%);fill-opacity:1;" d="M 23.890625 14.917969 L 22.359375 14.90625 L 22.347656 15.644531 "/>
<path style=" stroke:none;fill-rule:nonzero;fill:rgb(100%,100%,100%);fill-opacity:1;" d="M 23.890625 14.917969 L 22.660156 15.773438 L 22.1875 15.1875 "/>
<path style=" stroke:none;fill-rule:nonzero;fill:rgb(100%,100%,100%);fill-opacity:1;" d="M 20.980469 14.917969 L 22.214844 15.773438 L 22.6875 15.1875 "/>
<path style=" stroke:none;fill-rule:nonzero;fill:rgb(100%,100%,100%);fill-opacity:1;" d="M 20.980469 14.917969 L 22.515625 14.90625 L 22.527344 15.644531 "/>
<path style=" stroke:none;fill-rule:nonzero;fill:rgb(100%,100%,100%);fill-opacity:1;" d="M 23.335938 16.527344 L 22.875 15.152344 L 22.125 15.367188 "/>
<path style=" stroke:none;fill-rule:nonzero;fill:rgb(100%,100%,100%);fill-opacity:1;" d="M 23.335938 16.527344 L 22.089844 15.6875 L 22.539062 15.085938 "/>
<path style=" stroke:none;fill-rule:nonzero;fill:rgb(100%,100%,100%);fill-opacity:1;" d="M 21.539062 16.527344 L 22.785156 15.6875 L 22.335938 15.085938 "/>
<path style=" stroke:none;fill-rule:nonzero;fill:rgb(100%,100%,100%);fill-opacity:1;" d="M 21.539062 16.527344 L 22 15.152344 L 22.75 15.367188 "/>
<path style=" stroke:none;fill-rule:nonzero;fill:rgb(100%,100%,100%);fill-opacity:1;" d="M 28.558594 13.921875 L 28.074219 15.289062 L 28.8125 15.53125 "/>
<path style=" stroke:none;fill-rule:nonzero;fill:rgb(100%,100%,100%);fill-opacity:1;" d="M 28.558594 13.921875 L 29.042969 15.289062 L 28.300781 15.53125 "/>
<path style=" stroke:none;fill-rule:nonzero;fill:rgb(100%,100%,100%);fill-opacity:1;" d="M 30.011719 14.917969 L 28.480469 14.90625 L 28.464844 15.644531 "/>
<path style=" stroke:none;fill-rule:nonzero;fill:rgb(100%,100%,100%);fill-opacity:1;" d="M 30.011719 14.917969 L 28.78125 15.773438 L 28.308594 15.1875 "/>
<path style=" stroke:none;fill-rule:nonzero;fill:rgb(100%,100%,100%);fill-opacity:1;" d="M 27.101562 14.917969 L 28.335938 15.773438 L 28.804688 15.1875 "/>
<path style=" stroke:none;fill-rule:nonzero;fill:rgb(100%,100%,100%);fill-opacity:1;" d="M 27.101562 14.917969 L 28.632812 14.90625 L 28.648438 15.644531 "/>
<path style=" stroke:none;fill-rule:nonzero;fill:rgb(100%,100%,100%);fill-opacity:1;" d="M 29.457031 16.527344 L 28.996094 15.152344 L 28.246094 15.367188 "/>
<path style=" stroke:none;fill-rule:nonzero;fill:rgb(100%,100%,100%);fill-opacity:1;" d="M 29.457031 16.527344 L 28.210938 15.6875 L 28.660156 15.085938 "/>
<path style=" stroke:none;fill-rule:nonzero;fill:rgb(100%,100%,100%);fill-opacity:1;" d="M 27.65625 16.527344 L 28.90625 15.6875 L 28.457031 15.085938 "/>
<path style=" stroke:none;fill-rule:nonzero;fill:rgb(100%,100%,100%);fill-opacity:1;" d="M 27.65625 16.527344 L 28.121094 15.152344 L 28.867188 15.367188 "/>
<path style=" stroke:none;fill-rule:nonzero;fill:rgb(100%,100%,100%);fill-opacity:1;" d="M 28.558594 8.164062 L 28.074219 9.53125 L 28.8125 9.769531 "/>
<path style=" stroke:none;fill-rule:nonzero;fill:rgb(100%,100%,100%);fill-opacity:1;" d="M 28.558594 8.164062 L 29.042969 9.53125 L 28.300781 9.769531 "/>
<path style=" stroke:none;fill-rule:nonzero;fill:rgb(100%,100%,100%);fill-opacity:1;" d="M 30.011719 9.15625 L 28.480469 9.148438 L 28.464844 9.882812 "/>
<path style=" stroke:none;fill-rule:nonzero;fill:rgb(100%,100%,100%);fill-opacity:1;" d="M 30.011719 9.15625 L 28.78125 10.015625 L 28.308594 9.425781 "/>
<path style=" stroke:none;fill-rule:nonzero;fill:rgb(100%,100%,100%);fill-opacity:1;" d="M 27.101562 9.15625 L 28.335938 10.015625 L 28.804688 9.425781 "/>
<path style=" stroke:none;fill-rule:nonzero;fill:rgb(100%,100%,100%);fill-opacity:1;" d="M 27.101562 9.15625 L 28.632812 9.148438 L 28.648438 9.882812 "/>
<path style=" stroke:none;fill-rule:nonzero;fill:rgb(100%,100%,100%);fill-opacity:1;" d="M 29.457031 10.765625 L 28.996094 9.394531 L 28.246094 9.609375 "/>
<path style=" stroke:none;fill-rule:nonzero;fill:rgb(100%,100%,100%);fill-opacity:1;" d="M 29.457031 10.765625 L 28.210938 9.929688 L 28.660156 9.324219 "/>
<path style=" stroke:none;fill-rule:nonzero;fill:rgb(100%,100%,100%);fill-opacity:1;" d="M 27.65625 10.765625 L 28.90625 9.929688 L 28.457031 9.324219 "/>
<path style=" stroke:none;fill-rule:nonzero;fill:rgb(100%,100%,100%);fill-opacity:1;" d="M 27.65625 10.765625 L 28.121094 9.394531 L 28.867188 9.609375 "/>
</g>
</svg>
